<svg width="539" height="510" viewBox="0 0 539 510" fill="none" xmlns="http://www.w3.org/2000/svg">
<path d="M298.34 28.921C280.635 42.0874 277.846 69.0669 286.102 79.587C315.8 97.6156 378.276 79.587 388.9 0C355.746 18.2659 326.373 8.07348 298.34 28.921Z" fill="#81AC77"/>
<path d="M308.173 30.6245C302.544 39.2993 299.853 46.9274 300.753 61.7397" stroke="#619355" stroke-width="1.85305" stroke-linecap="round"/>
<path d="M334.058 22.5196C328.288 30.1143 327.495 34.8314 327.669 43.5452" stroke="#619355" stroke-width="1.85305" stroke-linecap="round"/>
<path d="M355.11 17.9879C355.165 22.2073 354.096 24.7153 351.572 29.2704" stroke="#619355" stroke-width="1.85305" stroke-linecap="round"/>
<path d="M355.942 34.4451C361.233 34.7574 364.278 34.7098 370.1 33.5093" stroke="#619355" stroke-width="1.85305" stroke-linecap="round"/>
<path d="M333.247 51.1443C341.489 52.9042 351.029 53.4245 363.185 51.9123" stroke="#619355" stroke-width="1.85305" stroke-linecap="round"/>
<path d="M311.153 64.8832C319.627 67.7774 326.641 68.5839 343.044 68.5723" stroke="#619355" stroke-width="1.85305" stroke-linecap="round"/>
<path d="M249.199 53.0288C225.971 36.9594 209.506 44.01 173.404 44.0099C183.666 56.5191 197.053 90.26 217.546 101.994C238.038 113.728 257.507 106.888 265.544 108.084V101.994C265.544 101.994 272.427 69.0983 249.199 53.0288Z" fill="#73986B"/>
<path d="M257.512 92.3493C257.278 82.3893 256.604 77.8704 254.773 71.0441" stroke="#54814A" stroke-width="1.66775" stroke-linecap="round"/>
<path d="M252.452 89.8527C246.721 93.9366 237.289 95.1035 229.767 95.1035" stroke="#54814A" stroke-width="1.66775" stroke-linecap="round"/>
<path d="M238.403 55.2323C241.75 60.3447 243.514 63.6571 246.4 70.6309" stroke="#54814A" stroke-width="1.66775" stroke-linecap="round"/>
<path d="M231.875 84.5839C225.646 86.7378 217.634 86.3051 212.613 83.5536" stroke="#54814A" stroke-width="1.66775" stroke-linecap="round"/>
<path d="M212.835 72.1329C207.569 72.4232 204.777 72.353 200.298 71.488" stroke="#54814A" stroke-width="1.66775" stroke-linecap="round"/>
<path d="M215.694 48.2737C220.745 52.9978 222.594 55.868 224.785 61.2419" stroke="#54814A" stroke-width="1.66775" stroke-linecap="round"/>
<path d="M201.417 58.8032C226.451 70.2691 263.68 88.1163 276.969 135.607L275.695 113.113C259.571 76.6441 225.786 67.1833 201.417 58.8032Z" fill="#3C6857"/>
<path d="M289.834 80.0716C273.617 110.63 287.376 133.436 281.128 169.669C281.077 169.966 280.848 170.209 280.553 170.267C278.131 170.748 276.648 170.709 274.552 170.299C274.183 170.227 273.934 169.869 273.969 169.494C278.811 118.378 268.997 109.342 281.511 80.0716C294.079 50.6731 340.136 39.6579 376.445 10.4868C344.038 42.2147 306.124 49.374 289.834 80.0716Z" fill="#4E7C6C"/>
<path d="M446.71 298.948C424.132 281.382 415.823 269.315 403.922 269.315V400.924H459.446L490.922 355C497.361 321.043 472.562 319.061 446.71 298.948Z" fill="#F4D2B9"/>
<path d="M47.2083 330.409C43.7953 306.204 83.3238 284.973 94.1879 275.195C102.512 268.201 120.718 253.194 125.735 250.044C134.768 244.375 141.516 243.702 152.359 243.702L152.358 385.177L83.6731 385.177L47.2083 330.409Z" fill="#F4D2B9"/>
<path d="M83.6731 385.176V347.936C115.023 332.625 144.096 339.261 152.359 267.9L152.358 385.176L83.6731 385.176Z" fill="#C57C62"/>
<path d="M459.446 400.924C459.446 328.357 403.922 361.396 403.922 269.315V400.924H459.446Z" fill="#C57C62"/>
<rect x="145.958" y="414.853" width="263.001" height="22.9362" fill="#283352"/>
<rect width="263.001" height="14.2361" transform="matrix(1 0 0 -1 145.958 414.853)" fill="#474E67"/>
<rect x="146.103" y="247.917" width="263.001" height="152.93" fill="#3B87B2"/>
<rect x="145.958" y="247.686" width="4.60505" height="152.93" fill="#7FB3D0"/>
<rect x="404.355" y="247.686" width="4.6051" height="152.93" fill="#7FB3D0"/>
<rect width="29.955" height="79.4475" transform="matrix(1 0 0 -1 262.481 247.686)" fill="#FD686B"/>
<path d="M262.481 247.686H292.436V248.585C292.436 256.857 285.73 263.563 277.458 263.563V263.563C269.187 263.563 262.481 256.857 262.481 248.585V247.686Z" fill="#E25356"/>
<path d="M326.658 247.688H359.568V247.688C359.568 256.456 352.46 263.564 343.692 263.564H342.535C333.767 263.564 326.658 256.456 326.658 247.688V247.688Z" fill="#E25356"/>
<path d="M359.568 247.688H389.435V248.631C389.435 256.878 382.749 263.564 374.501 263.564V263.564C366.254 263.564 359.568 256.878 359.568 248.631V247.688Z" fill="#DAE3F2"/>
<path d="M389.435 247.688H423.223V247.688C423.223 256.456 416.115 263.564 407.347 263.564H405.311C396.543 263.564 389.435 256.456 389.435 247.688V247.688Z" fill="#E25356"/>
<path d="M366.388 247.688H423.223L393.922 172.947C392.809 170.108 390.07 168.24 387.021 168.24H366.388V247.688Z" fill="#FD686B"/>
<path d="M340.28 247.688H389.435L367.675 168.24H340.28V247.688Z" fill="white"/>
<path d="M315.533 247.688H359.568L342.928 168.24H315.533V247.688Z" fill="#FD686B"/>
<path d="M292.436 247.688H326.658L320.258 168.24H292.436V247.688Z" fill="white"/>
<path d="M292.436 247.688H326.658V247.688C326.658 256.456 319.55 263.564 310.781 263.564H308.313C299.544 263.564 292.436 256.456 292.436 247.688V247.688Z" fill="#DAE3F2"/>
<path d="M228.259 247.688H195.349V247.688C195.349 256.456 202.457 263.564 211.225 263.564H212.382C221.151 263.564 228.259 256.456 228.259 247.688V247.688Z" fill="#E25356"/>
<path d="M195.349 247.688H165.482V248.631C165.482 256.878 172.168 263.564 180.416 263.564V263.564C188.663 263.564 195.349 256.878 195.349 248.631V247.688Z" fill="#DAE3F2"/>
<path d="M165.483 247.688H131.694V247.688C131.694 256.456 138.802 263.564 147.57 263.564H149.606C158.374 263.564 165.483 256.456 165.483 247.688V247.688Z" fill="#E25356"/>
<path d="M188.529 247.688H131.694L160.995 172.947C162.108 170.108 164.847 168.24 167.896 168.24H188.529V247.688Z" fill="#FD686B"/>
<path d="M214.637 247.688H165.482L187.242 168.24H214.637V247.688Z" fill="white"/>
<path d="M239.385 247.688H195.349L211.99 168.24H239.385V247.688Z" fill="#FD686B"/>
<path d="M262.481 247.688H228.259L234.659 168.24H262.481V247.688Z" fill="white"/>
<path d="M262.481 247.688H228.259V247.688C228.259 256.456 235.367 263.564 244.136 263.564H246.604C255.373 263.564 262.481 256.456 262.481 247.688V247.688Z" fill="#DAE3F2"/>
<path d="M194.347 339.442H224.936V358.761H194.347V339.442Z" fill="#499347"/>
<path d="M191.201 338.701C191.201 339.11 191.533 339.442 191.942 339.442H224.936V327.573H191.942C191.533 327.573 191.201 327.905 191.201 328.315V338.701Z" fill="#5CA55A"/>
<path d="M250.482 337.081H272.533C272.943 337.081 273.274 337.413 273.274 337.822V358.759H250.482V337.081Z" fill="#A7662C"/>
<path d="M265.119 344.183H258.636" stroke="#89511F" stroke-width="3" stroke-linecap="round"/>
<rect width="115.283" height="5.05954" rx="1.85305" transform="matrix(1 0 0 -1 173.407 363.274)" fill="#474E67"/>
<path d="M170.014 296.74C169.725 297.234 170.082 297.855 170.654 297.855H291.299C291.871 297.855 292.227 297.234 291.939 296.74L284.489 283.999C283.957 283.09 282.983 282.531 281.93 282.531H180.023C178.97 282.531 177.995 283.09 177.464 283.999L170.014 296.74Z" fill="#474E67"/>
<path d="M319.95 286.382C319.95 283.926 321.941 281.935 324.398 281.935H383.958C386.415 281.935 388.406 283.926 388.406 286.382V400.616H319.95V286.382Z" fill="white"/>
<mask id="mask0" mask-type="alpha" maskUnits="userSpaceOnUse" x="324" y="286" width="60" height="115">
<path d="M324.555 288.435C324.555 287.331 325.451 286.435 326.555 286.435H381.801C382.905 286.435 383.801 287.331 383.801 288.435V400.616H324.555V288.435Z" fill="#6CAFD6"/>
</mask>
<g mask="url(#mask0)">
<path d="M324.555 288.435C324.555 287.331 325.451 286.435 326.555 286.435H381.801C382.905 286.435 383.801 287.331 383.801 288.435V400.616H324.555V288.435Z" fill="#BCE1F5"/>
<g opacity="0.2">
<rect width="4.049" height="161.96" transform="matrix(0.715184 0.698936 -0.715184 0.698936 396.477 270.903)" fill="white"/>
<rect width="16.196" height="161.96" transform="matrix(0.715184 0.698936 -0.715184 0.698936 402.268 276.563)" fill="white"/>
</g>
</g>
<path d="M342.408 312.787L354.792 300.123C355.083 299.825 355.562 299.825 355.852 300.123L368.249 312.833" stroke="#FCB275" stroke-width="1.48244" stroke-linecap="round" stroke-linejoin="round"/>
<path d="M341.555 312.77C341.555 312.565 341.721 312.399 341.926 312.399H368.732C368.937 312.399 369.103 312.565 369.103 312.77V324.141C369.103 324.346 368.937 324.512 368.732 324.512H341.926C341.721 324.512 341.555 324.346 341.555 324.141V312.77Z" fill="white"/>
<path d="M348.464 318.456H362.195" stroke="#4F55DB" stroke-width="3" stroke-linecap="round"/>
<path d="M331.084 339.059C331.084 338.854 331.25 338.688 331.455 338.688H337.113C337.318 338.688 337.484 338.854 337.484 339.059V351.661C337.484 351.865 337.318 352.031 337.113 352.031H331.455C331.25 352.031 331.084 351.865 331.084 351.661V339.059Z" fill="#474E67"/>
<path d="M349.854 301.673H354.776" stroke="#A7662C" stroke-width="1.85305" stroke-linecap="round"/>
<path d="M324.555 384.092H383.801V400.617H324.555V384.092Z" fill="#617CAB"/>
<path d="M224.535 323.227C224.579 322.854 224.895 322.573 225.271 322.573H249.577C249.953 322.573 250.269 322.854 250.313 323.227L254.503 358.759H220.345L224.535 323.227Z" fill="#FFAA29"/>
<path d="M243.935 329.566V317.492C243.935 313.895 241.02 310.98 237.424 310.98V310.98C233.827 310.98 230.912 313.895 230.912 317.492V329.566" stroke="#CD8923" stroke-width="1.85305" stroke-linecap="round"/>
<mask id="mask1" mask-type="alpha" maskUnits="userSpaceOnUse" x="175" y="297" width="112" height="62">
<rect x="175.52" y="297.856" width="110.604" height="60.9043" fill="#48BDFF"/>
</mask>
<g mask="url(#mask1)">
<rect opacity="0.7" x="175.52" y="297.856" width="110.604" height="60.9043" fill="#BCE1F5"/>
<g opacity="0.2">
<rect width="4.049" height="161.96" transform="matrix(0.715184 0.698936 -0.715184 0.698936 273.292 256.276)" fill="white"/>
<rect width="4.049" height="161.96" transform="matrix(0.715184 0.698936 -0.715184 0.698936 302.25 284.576)" fill="white"/>
<rect width="16.196" height="161.96" transform="matrix(0.715184 0.698936 -0.715184 0.698936 279.083 261.937)" fill="white"/>
</g>
</g>
<rect x="280.943" y="297.856" width="5.18073" height="60.9043" fill="white"/>
<rect x="175.52" y="297.856" width="5.18066" height="60.9043" fill="white"/>
<path d="M431.825 384.235C417.058 388.403 388.507 388.183 383.462 429.263L403.807 439.843C440.276 434.21 478.292 432.87 485.5 417.032C491.006 404.935 487.593 376.034 491.006 354.543L452.143 333.052C429.774 343.427 424.881 365.892 431.825 384.235Z" fill="#F4D2B9"/>
<path d="M109.831 362.921C126.71 367.268 155.37 381.4 158.119 416.339L132.774 426.568C115.628 423.688 101.727 419.713 87.8747 416.339C76.3239 413.525 68.8964 415.074 57.6191 401.287C48.4511 390.079 53.0562 379.664 52.0394 366.45C50.9875 352.781 46.5342 341.91 47.2253 329.92L109.617 315.117C109.617 315.117 120.224 342.576 109.831 362.921Z" fill="#F4D2B9"/>
<path d="M108.298 309.168C108.298 309.168 122.68 338.784 109.831 362.92C102.221 360.935 98.1222 360.602 90.5212 359.697C107.547 355.255 94.4078 331.274 94.4078 331.274C113.743 341.55 108.298 309.168 108.298 309.168Z" fill="#E6BD9F"/>
<path d="M158.119 416.339L132.774 426.567C103.411 420.681 101.16 398.812 109.44 392.463C115.756 387.62 147.603 396.554 153.753 397.997C156.025 403.357 157.577 409.443 158.119 416.339Z" fill="#FAE6D7"/>
<path d="M262.66 439.606C256.018 423.534 243.202 419.066 228.885 425.654L123.987 469.515C126.259 484.374 135.35 483.64 140.886 486.48C152.705 492.545 161.192 498.795 173.118 503.486C178.271 505.513 184.035 504.449 188.658 501.402C206.571 489.594 218.659 483.569 228.885 477.16L254.709 470.95L262.66 439.606Z" fill="#F4D2B9"/>
<path d="M254.71 470.949L261.473 447.136C253.477 447.156 251.362 442.356 245.723 441.255C243.536 440.828 241.37 441.794 239.642 443.202C227.844 452.819 218.81 463.108 229.297 470.267L254.71 470.949Z" fill="#FAE6D7"/>
<g style="mix-blend-mode:multiply" opacity="0.34">
<path d="M254.709 470.951L261.684 437.253C252.808 437.253 247.623 449.28 244.16 453.201C240.172 457.716 232.102 460.15 225.246 465.55C216.73 472.258 209.019 478.544 201.686 483.549C194.722 488.303 187.974 492.578 181.4 493.88C174.825 495.182 167.236 490.254 158.556 485.344C172.848 477.16 176.378 471.879 197.946 458.607C205.418 454.01 220.093 450.124 227.265 443.803C232.743 438.973 234.865 429.338 230.016 425.375L123.987 469.515C126.259 484.374 135.35 483.64 140.886 486.48C152.705 492.545 161.192 498.795 173.118 503.486C178.271 505.513 184.035 504.449 188.658 501.402C206.571 489.594 218.659 483.569 228.885 477.16L254.709 470.951Z" fill="#E2C2AB"/>
</g>
<path d="M168.689 489.314L178.771 497.707" stroke="#C57C62" stroke-width="1.85305" stroke-linecap="round"/>
<path d="M80.7256 462.478C68.9648 449.023 69.1935 433.042 67.9152 410.558C71.2649 412.817 80.7608 414.268 92.994 417.175C105.405 420.124 119.294 423.626 127.291 424.849C136.632 418.891 147.284 414.919 155.373 412.904C185.929 405.291 218.572 407.616 230.358 425.238C233.054 429.27 230.908 439.153 219.589 443.762C219.589 443.762 194.064 453.294 177.204 460.341C167.598 464.355 164.104 471.367 153.795 475.307C143.486 479.246 141.367 474.074 116.167 470.603C106.215 469.232 89.2051 470.603 80.7256 462.478Z" fill="#F4D2B9"/>
<path d="M231.4 428.879C231.552 433.599 228.265 440.23 219.589 443.762C219.589 443.762 211.586 446.751 201.582 450.619C190.002 446.854 185.289 441.566 187.363 437.919C190.396 432.584 199.134 430.068 206.198 428.134C207.961 427.652 209.833 427.844 211.497 428.598C218.354 431.704 226.277 433.971 231.4 428.879Z" fill="#FAE6D7"/>
<g style="mix-blend-mode:multiply" opacity="0.34">
<path d="M80.7256 462.478C68.9648 449.023 69.1935 433.042 67.9152 410.558C71.2649 412.817 80.7608 414.268 92.994 417.175C105.405 420.124 119.294 423.625 127.291 424.849L119.832 429.914C104.327 428.105 95.7971 427.676 81.1846 429.091C80.7256 436.332 82.9617 449.664 90.6674 454.447C100.515 460.558 109.474 457.619 122.439 460.06C136.058 462.624 142.916 468.116 151.95 466.284C159.343 464.784 169.387 457.838 182.859 453.176C194.939 448.996 201.855 450.313 218.345 444.228C219.149 443.926 219.589 443.762 219.589 443.762C219.168 443.922 218.754 444.077 218.345 444.228C213.033 446.223 191.849 454.22 177.204 460.34C167.598 464.355 164.104 471.367 153.795 475.306C143.486 479.246 141.367 474.074 116.167 470.603C106.215 469.232 89.2051 470.603 80.7256 462.478Z" fill="#E2C2AB"/>
</g>
<path d="M142.31 471.162C136.942 467.279 134.121 464.952 129.472 460.534" stroke="#C57C62" stroke-width="1.85305" stroke-linecap="round"/>
<path d="M452.143 333.052C429.773 343.427 424.881 365.892 431.824 384.235C437.822 382.728 440.894 382.193 448.101 379.398C434.132 372.774 448.101 356.727 448.101 356.727C432.85 351.197 452.143 333.052 452.143 333.052Z" fill="#E6BD9F"/>
<path d="M383.462 429.264L403.807 439.844C409.746 438.927 415.727 438.123 421.609 437.352C458.466 407.09 418.805 395.745 387.178 413.452C385.496 417.901 384.216 423.12 383.462 429.264Z" fill="#FAE6D7"/>
<path d="M225.741 485.305C223.204 475.216 227.438 459.007 252.712 459.703C286.062 472.386 302.747 478.171 322.607 497.393C317.415 499.131 311.29 501.103 305.366 504.745C300.664 507.635 295.264 509.607 289.837 508.606C277.41 506.313 262.155 502.645 262.155 502.645C238.347 496.796 228.538 492.985 225.741 485.305Z" fill="#F4D2B9"/>
<path d="M254.524 500.709C236.195 495.873 228.217 492.106 225.741 485.304C228.589 482.252 233.238 483.749 237.951 482.252C243.026 480.702 244.943 477.283 248.015 476.982C250.521 476.736 254.808 479.309 259.412 482.252C263.984 485.175 268.069 488.37 267.313 490.929C265.486 495.268 260.453 498.777 254.524 500.709Z" fill="#FAE6D7"/>
<g style="mix-blend-mode:multiply" opacity="0.34">
<path d="M301.495 496.964C301.495 496.964 251.698 473.13 251.698 459.636C285.049 472.32 302.748 478.17 322.607 497.392C317.415 499.13 311.29 501.103 305.366 504.744C300.665 507.634 295.265 509.606 289.838 508.605C277.41 506.312 262.156 502.645 262.156 502.645C256.12 501.161 243.106 497.827 237.862 495.448C257.455 497.869 283.669 501.954 291.962 501.225C295.901 500.584 298.684 498.783 301.495 496.964Z" fill="#E2C2AB"/>
</g>
<path d="M252.242 447.736C258.885 432.863 273.302 432.595 293.681 435.139L407.327 477.876C397.9 482.523 393.865 489.965 386.378 494.286C380.092 497.914 375.643 496.518 366.237 499.506C352.569 503.847 351.681 508.729 338.839 508.729C337.316 508.729 333.18 507.868 329.545 505.607C323.608 501.916 317.704 496.325 312.413 493.216C302.519 487.403 279.157 477.234 258.083 467.114C251.171 463.794 248.968 455.068 252.242 447.736Z" fill="#F4D2B9"/>
<path d="M277.544 452.938C292.756 460.07 310.749 476.504 273.164 474.222C268.148 471.889 263.052 469.499 258.083 467.113C255.127 465.694 253.032 463.286 251.859 460.421C262.365 460.879 266.144 456.429 271.961 453.097C273.675 452.115 275.755 452.099 277.544 452.938Z" fill="#FAE6D7"/>
<path d="M344.66 503.382L353.26 492.493" stroke="#C57C62" stroke-width="1.85305" stroke-linecap="round"/>
<path d="M447.719 461.313L451.124 433.099L411.139 438.766C388.463 426.832 370.487 416.104 359.701 414.088C327.597 407.822 296.231 421.204 291.509 434.928C287.701 445.998 298.076 452.806 308.268 454.65C316.775 456.19 327.307 454.619 329.684 455.589C345.041 461.858 352.913 466.111 366.218 474.635C369.121 476.494 372.404 477.689 375.831 478.06C395.13 480.149 409.046 480.922 426.667 480.618C437.521 480.431 446.418 472.091 447.719 461.313Z" fill="#F4D2B9"/>
<path d="M294.619 448.229C298.01 451.557 303.162 453.727 308.269 454.651C315.079 455.883 323.187 455.123 327.37 455.268C329.956 453.563 332.203 451.366 333.717 449.712C334.871 448.452 334.501 446.584 332.914 445.95C327.421 443.754 316.582 440.851 310.7 441.938C305.714 442.761 301.223 446.492 294.619 448.229Z" fill="#FAE6D7"/>
<g style="mix-blend-mode:multiply" opacity="0.34">
<path d="M447.719 461.314L451.125 433.099L411.139 438.766C401.2 433.536 392.164 428.537 384.241 424.401C390.96 431.93 396.022 436.658 403.892 442.448C408.523 445.855 414.253 447.378 419.993 447.037L439.641 445.869L437.214 459.786C435.949 467.038 429.554 472.263 422.195 472.057L380.2 470.881C376.099 470.766 372.095 469.486 368.62 467.306C336.515 447.171 334.978 454.651 308.268 454.651C316.776 456.19 327.308 454.62 329.684 455.59C345.041 461.859 352.913 466.112 366.219 474.635C369.121 476.494 372.404 477.689 375.831 478.06C395.131 480.149 409.047 480.922 426.667 480.618C437.521 480.431 446.418 472.091 447.719 461.314Z" fill="#E2C2AB"/>
</g>
<path d="M379.34 472.676L393.487 460.449" stroke="#C57C62" stroke-width="1.85305" stroke-linecap="round"/>
</svg>
