<svg width="106" height="104" viewBox="0 0 106 104" fill="none" xmlns="http://www.w3.org/2000/svg">
<path d="M68.2214 47.6107C68.2214 55.4516 64.5546 62.4361 58.8422 66.943C56.4737 68.8116 54.703 71.4878 54.703 74.5047V77.079H32.5183V74.5047C32.5183 71.4878 30.7477 68.8116 28.3792 66.943C22.6668 62.4361 19 55.4516 19 47.6107C19 34.0186 30.0186 23 43.6107 23C57.2028 23 68.2214 34.0186 68.2214 47.6107Z" fill="#FCD675"/>
<path d="M46.1685 77.1015C46.1685 66.8349 50.1381 48.9766 54.3354 48.9766C56.7139 48.9766 56.6351 52.8144 54.3354 52.8144C52.3577 52.8144 50.3636 49.3276 48.4788 49.3276C46.5939 49.3276 45.6917 51.685 43.6108 51.685" stroke="#DF8D50" stroke-width="1.5" stroke-linecap="round" stroke-linejoin="round"/>
<path d="M41.0531 77.1015C41.0531 66.8349 37.0836 48.9766 32.8863 48.9766C30.5078 48.9766 30.5865 52.8144 32.8863 52.8144C34.864 52.8144 36.8581 49.3276 38.7429 49.3276C40.6277 49.3276 41.5299 51.685 43.6109 51.685" stroke="#DF8D50" stroke-width="1.5" stroke-linecap="round" stroke-linejoin="round"/>
<rect x="30.1107" y="77.0781" width="27" height="6.5" rx="3.25" fill="#A3B5D4"/>
<path d="M32.5947 83.5781H54.6271V87.703C54.6271 90.0874 53.1014 92.2043 50.8393 92.9583L50.3732 93.1137C49.2566 93.4859 48.3372 94.2925 47.8229 95.3513V95.3513C47.0915 96.8572 45.5643 97.8133 43.8901 97.8133H43.3318C41.6576 97.8133 40.1304 96.8572 39.3989 95.3513V95.3513C38.8846 94.2925 37.9652 93.4859 36.8486 93.1137L36.3825 92.9583C34.1204 92.2043 32.5946 90.0874 32.5947 87.7029L32.5947 83.5781Z" fill="#617CAB"/>
<rect x="30.1107" y="83.5781" width="27" height="6.5" rx="3.25" fill="#8B9DBD"/>
<path d="M62.3725 39.9228C60.5104 35.3826 57.0483 31.668 52.6876 29.4805" stroke="#FCD675" stroke-width="2" stroke-linecap="round"/>
<ellipse cx="33.2653" cy="35.111" rx="5.2939" ry="7.73182" transform="rotate(45 33.2653 35.111)" fill="#FFF2AC"/>
<path d="M44.2837 16V6" stroke="#FCD675" stroke-width="3" stroke-linecap="round"/>
<path d="M75.2214 47.8223L85.2214 47.8223" stroke="#FCD675" stroke-width="3" stroke-linecap="round"/>
<path d="M65.7465 25.9009L70.6963 20.9512" stroke="#FCD675" stroke-width="3" stroke-linecap="round"/>
<path d="M65.7465 69.6596L70.6963 74.6094" stroke="#FCD675" stroke-width="3" stroke-linecap="round"/>
<path d="M21.4749 25.9009L16.5251 20.9512" stroke="#FCD675" stroke-width="3" stroke-linecap="round"/>
<path d="M21.4749 69.6596L16.5251 74.6094" stroke="#FCD675" stroke-width="3" stroke-linecap="round"/>
<path d="M2 47.8223L12 47.8223" stroke="#FCD675" stroke-width="3" stroke-linecap="round"/>
</svg>
