<svg width="104" height="104" viewBox="0 0 104 104" fill="none" xmlns="http://www.w3.org/2000/svg">
<path d="M11.4646 73.3872H46.1881L51.1881 86.168H6.4646L11.4646 73.3872Z" fill="#D59423"/>
<path d="M5 73.3872H19.7235L24.7235 86.168H0L5 73.3872Z" fill="#FEBF46"/>
<path d="M37.0586 73.3872H71.7821L76.7821 86.168H32.0586L37.0586 73.3872Z" fill="#D59423"/>
<path d="M30.594 73.3872H45.3175L50.3175 86.168H25.594L30.594 73.3872Z" fill="#FEBF46"/>
<path d="M24.2617 60.6064H58.9852L63.9852 73.3872H19.2617L24.2617 60.6064Z" fill="#D59423"/>
<path d="M17.7971 60.6064H32.5206L37.5206 73.3872H12.7971L17.7971 60.6064Z" fill="#FEBF46"/>
<path d="M62.6526 73.3872H97.3761L102.376 86.168H57.6526L62.6526 73.3872Z" fill="#EBA730"/>
<path d="M56.188 73.3872H70.9115L75.9115 86.168H51.188L56.188 73.3872Z" fill="#FEBF46"/>
<path d="M49.8555 60.6064H84.5789L89.5789 73.3872H44.8555L49.8555 60.6064Z" fill="#D59423"/>
<path d="M43.3909 60.6064H58.1143L63.1143 73.3872H38.3909L43.3909 60.6064Z" fill="#FEBF46"/>
<path d="M70.0767 27.1322L62.8195 18L52.0339 50.1866H64.6169L70.0767 27.1322Z" fill="#D59423"/>
<path d="M44.9795 18.0044L36.8533 49.1211H54.8893L62.8172 18.0044H44.9795Z" fill="#FEBF46"/>
<path d="M47.3752 30.0933H54.2949" stroke="white" stroke-width="1.5" stroke-linecap="round"/>
<path d="M46.3752 34.0933H53.2949" stroke="white" stroke-width="1.5" stroke-linecap="round"/>
<path d="M45.3752 38.0933H49.2949" stroke="white" stroke-width="1.5" stroke-linecap="round"/>
<path d="M37.0586 47.8257H71.7821L76.7821 60.6065H32.0586L37.0586 47.8257Z" fill="#EBA730"/>
<path d="M30.594 47.8257H45.3175L50.3175 60.6065H25.594L30.594 47.8257Z" fill="#FEBF46"/>
<path d="M91.6537 44.9205C89.4442 44.5016 88.2582 43.3974 87.8268 40.7681V44.9205H91.6537Z" fill="#FFB118"/>
<path d="M91.6537 44.9202C89.4442 45.3391 88.2582 46.4432 87.8268 49.0726V44.9202H91.6537Z" fill="#FFB118"/>
<path d="M84 44.9205C86.2095 44.5016 87.3955 43.3974 87.8268 40.7681V44.9205H84Z" fill="#FFB118"/>
<path d="M84 44.9202C86.2095 45.3391 87.3955 46.4432 87.8268 49.0726V44.9202H84Z" fill="#FFB118"/>
<path d="M24.8289 29.8133C20.548 29.0017 18.2502 26.8624 17.4144 21.7681V29.8133H24.8289Z" fill="#FFB118"/>
<path d="M24.8289 29.8127C20.548 30.6243 18.2502 32.7637 17.4144 37.858V29.8127H24.8289Z" fill="#FFB118"/>
<path d="M9.99999 29.8133C14.2809 29.0017 16.5786 26.8624 17.4144 21.7681V29.8133H9.99999Z" fill="#FFB118"/>
<path d="M9.99999 29.8127C14.2809 30.6243 16.5786 32.7637 17.4144 37.858V29.8127H9.99999Z" fill="#FFB118"/>
</svg>
