<svg width="104" height="104" viewBox="0 0 104 104" fill="none" xmlns="http://www.w3.org/2000/svg">
<mask id="mask0" mask-type="alpha" maskUnits="userSpaceOnUse" x="0" y="23" width="59" height="65">
<rect y="23" width="58.9781" height="64.7024" rx="6" fill="#C4C4C4"/>
</mask>
<g mask="url(#mask0)">
<rect y="23" width="58.9781" height="64.7024" rx="6" fill="#BCC8DC"/>
<path d="M5.16968 38.7031V81.7031C5.16968 85.0168 7.85597 87.7031 11.1697 87.7031H34.6587" stroke="#90A3C1" stroke-width="0.7"/>
<path d="M2.66052 38.7031V81.7031C2.66052 85.0168 5.34682 87.7031 8.66053 87.7031H32.1496" stroke="#90A3C1" stroke-width="0.7"/>
</g>
<path d="M0 29C0 25.6863 2.68629 23 6 23H52.9781C56.2918 23 58.9781 25.6863 58.9781 29V38.7024H0V29Z" fill="#E25356"/>
<mask id="mask1" mask-type="alpha" maskUnits="userSpaceOnUse" x="8" y="23" width="59" height="65">
<rect x="8" y="23" width="58.9781" height="64.7024" rx="6" fill="#E2E2E2"/>
</mask>
<g mask="url(#mask1)">
<rect x="8" y="23" width="58.9781" height="64.7024" rx="6" fill="white"/>
<circle cx="53.348" cy="71.0446" r="20.6578" fill="white"/>
</g>
<path d="M23.3958 70.3066H8L25.3958 87.7024V72.3066C25.3958 71.2021 24.5003 70.3066 23.3958 70.3066Z" fill="#BCC8DC"/>
<path d="M14 87.7024H25.3958L7.99998 70.3066V81.7024C7.99998 85.0161 10.6863 87.7024 14 87.7024Z" fill="white"/>
<path d="M8 29C8 25.6863 10.6863 23 14 23H60.9781C64.2918 23 66.9781 25.6863 66.9781 29V38.7024H8V29Z" fill="#FD686B"/>
<circle cx="50.978" cy="30.8512" r="2.5" fill="#E25356"/>
<circle cx="24" cy="30.8516" r="2.5" fill="#E25356"/>
<path d="M50.978 28.75C50.2877 28.75 49.728 29.3096 49.728 30C49.728 30.6904 50.2877 31.25 50.978 31.25V28.75ZM44.0471 22.0129L42.8093 21.8382L44.0471 22.0129ZM56.728 23C56.728 26.1756 54.1537 28.75 50.978 28.75V31.25C55.5344 31.25 59.228 27.5563 59.228 23H56.728ZM50.978 17.25C54.1537 17.25 56.728 19.8244 56.728 23H59.228C59.228 18.4437 55.5344 14.75 50.978 14.75V17.25ZM45.228 23C45.228 22.7236 45.2474 22.4524 45.2848 22.1876L42.8093 21.8382C42.7557 22.2184 42.728 22.6063 42.728 23H45.228ZM45.2848 22.1876C45.6787 19.3971 48.0787 17.25 50.978 17.25V14.75C46.8155 14.75 43.3748 17.8316 42.8093 21.8382L45.2848 22.1876Z" fill="#A6B5CC"/>
<path d="M24 28.75C23.3096 28.75 22.75 29.3096 22.75 30C22.75 30.6904 23.3096 31.25 24 31.25V28.75ZM29.75 23C29.75 26.1756 27.1756 28.75 24 28.75V31.25C28.5563 31.25 32.25 27.5563 32.25 23H29.75ZM18.25 23C18.25 19.8244 20.8244 17.25 24 17.25V14.75C19.4437 14.75 15.75 18.4437 15.75 23H18.25ZM24 17.25C27.1756 17.25 29.75 19.8244 29.75 23H32.25C32.25 18.4437 28.5563 14.75 24 14.75V17.25Z" fill="#A6B5CC"/>
<rect x="15.2892" y="47.3867" width="14" height="14" rx="2" fill="#C0DFC0"/>
<path d="M19.2206 53.1711L22.3099 56.2609L30.7486 47.8223" stroke="#5CA55A" stroke-width="3" stroke-linecap="round" stroke-linejoin="round"/>
<circle cx="56.3482" cy="68.0446" r="20.6578" fill="#3B87B2"/>
<mask id="mask2" mask-type="alpha" maskUnits="userSpaceOnUse" x="42" y="53" width="29" height="30">
<circle cx="56.3481" cy="68.0439" r="14.288" fill="white"/>
</mask>
<g mask="url(#mask2)">
<circle cx="56.3481" cy="68.0439" r="14.288" fill="white"/>
<circle cx="54.3481" cy="70.0439" r="14.288" fill="white"/>
</g>
<path d="M56.3481 68.0449V60.7676" stroke="#48BDFF" stroke-width="3" stroke-linecap="round" stroke-linejoin="round"/>
<path d="M61.494 73.1888L56.3481 68.043" stroke="#48BDFF" stroke-width="3" stroke-linecap="round" stroke-linejoin="round"/>
</svg>
