<svg width="136" height="68" viewBox="0 0 136 68" fill="none" xmlns="http://www.w3.org/2000/svg">
<g clip-path="url(#clip0)">
<path fill-rule="evenodd" clip-rule="evenodd" d="M68.0007 26.5496C67.6501 26.1367 67.5185 25.6307 67.6068 25.0309C67.6947 24.4323 67.9749 23.9255 68.4468 23.5127C68.9191 23.0998 69.453 22.8931 70.0503 22.8931C70.647 22.8931 71.121 23.0998 71.4715 23.5127C71.8225 23.9255 71.9537 24.4323 71.8658 25.0309C71.7779 25.6307 71.4975 26.1367 71.0259 26.5496C70.5533 26.9624 70.0186 27.1691 69.4223 27.1691C68.8251 27.1691 68.3514 26.9624 68.0007 26.5496Z" fill="black"/>
<path fill-rule="evenodd" clip-rule="evenodd" d="M62.995 28.4248C62.2942 28.4248 61.6424 28.9951 61.5456 29.6915L60.8337 34.8796C60.7551 35.4448 60.4841 35.9351 60.0211 36.3504C59.5579 36.766 59.0363 36.9738 58.4574 36.9738C57.8944 36.9738 57.4382 36.7702 57.0896 36.3626C56.74 35.9556 56.606 35.4616 56.6864 34.8796L57.1158 31.7313C57.129 31.1028 56.6571 30.6111 56.0067 30.6111H54.3032C53.6528 30.6111 53.0441 31.1028 52.8838 31.7313L52.4403 34.8796C52.3599 35.4616 52.0884 35.9556 51.6263 36.3626C51.1639 36.7702 50.6515 36.9738 50.0893 36.9738C49.5259 36.9738 49.0664 36.766 48.7103 36.3504C48.3539 35.9351 48.2152 35.4448 48.2931 34.8796L49.2473 27.9958C49.3481 27.3257 48.9511 26.6252 48.3446 26.3409C48.3446 26.3409 41.1602 23.3487 40.6921 23.1564C40.2181 22.9626 39.6811 23.3972 39.4971 24.1224L39.0581 25.8542C38.8742 26.5793 39.2886 27.404 39.9786 27.6863L44.7936 29.6779L44.0724 34.8796C43.83 36.6242 44.2393 38.1167 45.3015 39.3544C46.3629 40.5931 47.7626 41.2117 49.5015 41.2117C51.1067 41.2117 52.5722 40.6719 53.8974 39.5912C54.9557 40.6719 56.2803 41.2117 57.8696 41.2117C59.608 41.2117 61.1795 40.5931 62.5845 39.3544C63.9894 38.1167 64.8129 36.6242 65.0549 34.8796C65.0549 34.8796 65.8096 29.3903 65.8232 29.2941C65.889 28.8157 65.3705 28.4248 64.6698 28.4248H62.995Z" fill="black"/>
<path fill-rule="evenodd" clip-rule="evenodd" d="M70.0027 28.4236H68.4976C67.8678 28.4236 67.2821 28.9359 67.1952 29.5618C67.1952 29.5618 65.6791 40.3778 65.672 40.4307C65.6126 40.8604 66.0788 41.2121 66.7083 41.2121H68.213C68.8427 41.2121 69.4285 40.7 69.5154 40.0739C69.5154 40.0739 71.0337 29.2397 71.0384 29.2051C71.0981 28.7751 70.6319 28.4236 70.0027 28.4236Z" fill="black"/>
<path fill-rule="evenodd" clip-rule="evenodd" d="M95.8202 29.8009C94.9574 28.7832 93.7892 28.2744 92.3155 28.2744C90.8415 28.2744 89.4648 28.5969 88.108 29.7674C88.108 29.7674 89.0682 23.1161 89.0689 23.1119C89.1291 22.6737 88.6535 22.3151 88.0115 22.3151H86.4761C85.8335 22.3151 85.2355 22.8376 85.1475 23.4764C85.1475 23.4764 82.6811 40.428 82.6808 40.4311C82.6203 40.8694 83.0955 41.2283 83.7382 41.2283H85.2733C85.904 41.2283 86.4904 40.7245 86.5954 40.1017H86.5975L87.3702 34.8138C87.5267 33.7453 87.9369 32.9352 88.6021 32.384C89.2666 31.8326 89.992 31.5569 90.7764 31.5569C92.3628 31.5569 93.0031 32.6089 92.6959 34.7118C92.6959 34.7118 91.8726 40.4136 91.8726 40.4154C91.8119 40.8534 92.2876 41.2122 92.9303 41.2122H94.4649C95.1076 41.2122 95.7054 40.6897 95.7942 40.0507L96.7429 33.8721C96.9906 32.1761 96.6829 30.8186 95.8202 29.8009Z" fill="black"/>
<path fill-rule="evenodd" clip-rule="evenodd" d="M80.9989 32.1063C81.2206 32.0958 81.4129 31.9722 81.6221 31.7056L82.3403 30.7893C82.6443 30.4015 82.6518 29.8042 82.3585 29.3961C82.2299 29.175 81.8559 28.9603 81.5144 28.7759L81.4759 28.7547C80.3958 28.1693 79.3343 27.9488 77.927 28.0174C76.3985 28.0922 75.0942 28.5429 74.0506 29.3574C72.9985 30.1785 72.4041 31.2177 72.2843 32.446C72.1625 33.6927 72.5837 34.6235 73.535 35.2126C73.9869 35.4979 74.4 35.7155 74.7624 35.8596C75.1228 36.0036 75.6528 36.1725 76.3381 36.3627C77.0042 36.5482 77.5114 36.7585 77.845 36.9866C78.151 37.1968 78.2876 37.4217 78.2626 37.6748C78.2368 37.9395 78.1002 38.1532 77.8453 38.3281C77.5801 38.5103 77.2265 38.6135 76.7943 38.6345C75.626 38.6918 74.5265 38.4191 73.5273 37.8246L72.7857 37.4143C72.6667 37.3483 72.5282 37.317 72.3851 37.3238C72.152 37.3353 71.9338 37.4473 71.8007 37.6235L70.7344 39.0361C70.6251 39.1806 70.582 39.3541 70.6131 39.5241C70.6426 39.6888 70.7377 39.8315 70.8814 39.9275L70.8833 39.9293C71.2307 40.2027 71.5936 40.442 71.9612 40.6406C72.4424 40.9049 72.9596 41.12 73.4986 41.2789C74.5062 41.5763 75.5057 41.7035 76.4683 41.6563C77.9189 41.5854 79.1724 41.1284 80.1946 40.2983C81.2231 39.4627 81.8088 38.3758 81.937 37.0686C82.0668 35.7416 81.6861 34.8003 80.8047 34.2701C80.3532 34.0026 79.9542 33.8045 79.6185 33.6815C79.285 33.5601 78.7202 33.389 77.9407 33.1729C77.1705 32.9602 76.6176 32.7654 76.2969 32.5948C76.0145 32.4447 75.8955 32.2435 75.9231 31.9615C75.9745 31.4332 76.5176 31.1401 77.5365 31.0906C78.356 31.0501 79.1779 31.2393 79.9758 31.6499C80.1395 31.7401 80.3204 31.848 80.486 31.9538C80.4959 31.9599 80.502 31.9634 80.502 31.9634C80.502 31.9634 80.502 31.9634 80.5017 31.9629C80.6908 32.0683 80.8487 32.1139 80.9989 32.1063Z" fill="black"/>
</g>
<defs>
<clipPath id="clip0">
<rect width="57.8667" height="28" fill="white" transform="translate(39 18)"/>
</clipPath>
</defs>
</svg>
