<svg width="160" height="68" viewBox="0 0 160 68" fill="none" xmlns="http://www.w3.org/2000/svg">
<g clip-path="url(#clip0)">
<g clip-path="url(#clip1)">
<path fill-rule="evenodd" clip-rule="evenodd" d="M51.1013 29.7193L50.8943 29.8215C50.3286 29.1267 49.7905 28.5341 49.2799 28.0436C48.7694 27.5531 48.2727 27.1921 47.7898 26.9605C47.5552 26.8515 47.1309 26.7595 46.5169 26.6846C45.9029 26.6097 45.1888 26.5722 44.3747 26.5722C44.2367 26.5722 44.0781 26.5756 43.8987 26.5824C43.7193 26.5892 43.5468 26.596 43.3813 26.6029C43.2157 26.6097 43.0605 26.6165 42.9156 26.6233C42.7707 26.6301 42.6638 26.6335 42.5948 26.6335C42.581 26.7153 42.5637 26.797 42.543 26.8787C42.5223 26.9605 42.5051 27.0559 42.4913 27.1649C42.4775 27.2738 42.4637 27.4135 42.4499 27.5838C42.4361 27.7541 42.4223 27.9619 42.4085 28.2071C42.3947 28.6839 42.3843 29.205 42.3774 29.7704C42.3705 30.3358 42.3671 30.8706 42.3671 31.3747V33.3161H42.7396C42.9604 33.3161 43.2053 33.3093 43.4744 33.2956C43.7435 33.282 44.0229 33.265 44.3126 33.2446C44.6024 33.2241 44.8439 33.1935 45.037 33.1526C45.5338 33.0436 45.927 32.9005 46.2168 32.7234C46.5065 32.5463 46.7342 32.3352 46.8998 32.0899C47.0654 31.8447 47.1826 31.5756 47.2516 31.2827C47.3206 30.9898 47.3827 30.673 47.4379 30.3324H47.6863V36.9128H47.4379C47.3275 36.4768 47.1688 36.017 46.9619 35.5334C46.7549 35.0497 46.5065 34.6785 46.2168 34.4196C45.9546 34.188 45.6752 34.0143 45.3785 33.8985C45.0819 33.7827 44.7335 33.7112 44.3333 33.6839C44.1264 33.6703 43.947 33.6601 43.7952 33.6533C43.6434 33.6465 43.4985 33.6431 43.3606 33.6431H42.3671V36.1771C42.3671 36.5586 42.3705 36.9094 42.3774 37.2296C42.3843 37.5497 42.3878 37.8256 42.3878 38.0572C42.4016 38.4932 42.4257 38.9053 42.4602 39.2936C42.4947 39.6819 42.5741 39.9714 42.6983 40.1621C42.8224 40.3529 43.0329 40.4993 43.3295 40.6015C43.6262 40.7037 44.0574 40.7684 44.6231 40.7956V41H38V40.7956C38.345 40.7411 38.6658 40.6526 38.9624 40.53C39.2591 40.4074 39.504 40.2371 39.6972 40.0191C39.7662 39.9373 39.8213 39.8181 39.8627 39.6614C39.9041 39.5048 39.9421 39.3243 39.9766 39.1199C40.0111 38.9155 40.0352 38.701 40.049 38.4762C40.0628 38.2514 40.0697 38.03 40.0697 37.812C40.0697 37.6213 40.0732 37.3624 40.0801 37.0354C40.087 36.7084 40.0939 36.3508 40.1008 35.9625C40.1077 35.5742 40.1111 35.1758 40.1111 34.767V29.5967C40.1111 29.3515 40.1077 29.0995 40.1008 28.8406C40.0939 28.5817 40.0801 28.3365 40.0594 28.1049C40.0387 27.8733 40.0042 27.6655 39.9559 27.4816C39.9076 27.2977 39.842 27.1649 39.7593 27.0831C39.5523 26.8651 39.3315 26.7255 39.0969 26.6642C38.8624 26.6029 38.5588 26.545 38.1863 26.4905V26.2861H49.6939L51.1013 29.7193ZM73.7164 41V40.7956C73.7578 40.7956 73.8578 40.782 74.0165 40.7548C74.1752 40.7275 74.3407 40.6798 74.5132 40.6117C74.6857 40.5436 74.8375 40.4482 74.9686 40.3256C75.0996 40.203 75.1652 40.0463 75.1652 39.8556C75.1652 39.733 75.1272 39.532 75.0513 39.2527C74.9755 38.9734 74.8685 38.6328 74.7305 38.2309C74.5926 37.829 74.4339 37.3828 74.2545 36.8924C74.0751 36.4019 73.882 35.891 73.675 35.3597H68.1695C67.9626 35.8774 67.7625 36.3713 67.5693 36.8413C67.3762 37.3113 67.183 37.7847 66.9898 38.2616C66.7 38.9973 66.5552 39.515 66.5552 39.8147C66.5552 39.9918 66.6104 40.1383 66.7207 40.2541C66.8311 40.3699 66.9726 40.4653 67.145 40.5402C67.3175 40.6151 67.5038 40.6696 67.7039 40.7037C67.9039 40.7377 68.0937 40.7684 68.273 40.7956V41H63.8645V40.7752C64.2233 40.7343 64.5303 40.639 64.7856 40.4891C65.0408 40.3392 65.1892 40.2371 65.2306 40.1826C65.3271 40.0872 65.4858 39.8624 65.7066 39.5082C65.9274 39.1539 66.1964 38.6294 66.5138 37.9346C66.8035 37.2943 67.1278 36.5654 67.4865 35.748C67.8453 34.9305 68.2144 34.0892 68.5938 33.2241C68.9733 32.359 69.3493 31.4871 69.7218 30.6083C70.0944 29.7296 70.4462 28.9087 70.7774 28.1458L70.5704 27.6962C70.8188 27.5872 71.043 27.4578 71.2431 27.3079C71.4431 27.158 71.6191 27.0014 71.7709 26.8379C71.9226 26.6744 72.0503 26.5177 72.1537 26.3678C72.2572 26.218 72.3366 26.0954 72.3918 26H72.5573C72.9851 27.1308 73.3921 28.2037 73.7785 29.2187C74.1648 30.2337 74.5339 31.2112 74.8858 32.1512C75.2376 33.0913 75.5791 34.0007 75.9103 34.8794C76.2414 35.7582 76.5726 36.6267 76.9037 37.485C77.0555 37.9074 77.197 38.2582 77.328 38.5375C77.4591 38.8168 77.6074 39.1335 77.773 39.4877C77.8006 39.5422 77.8627 39.6376 77.9593 39.7738C78.0559 39.9101 78.1835 40.0497 78.3422 40.1928C78.5009 40.3358 78.6975 40.4619 78.9321 40.5708C79.1666 40.6798 79.4426 40.7411 79.76 40.7548V41H73.7164ZM71.0051 28.6158C70.9223 28.7929 70.8015 29.0722 70.6429 29.4537C70.4842 29.8352 70.2876 30.2984 70.053 30.8433C69.8184 31.3883 69.5597 32.0048 69.2768 32.6928C68.994 33.3808 68.687 34.1267 68.3558 34.9305H73.5094C73.2748 34.3174 73.0368 33.7044 72.7954 33.0913C72.5539 32.4782 72.3193 31.889 72.0917 31.3236C71.864 30.7582 71.657 30.2405 71.4707 29.7704C71.2845 29.3004 71.1292 28.9155 71.0051 28.6158ZM100.119 41H93.8478V40.7956C94.1928 40.7411 94.5136 40.6526 94.8102 40.53C95.1069 40.4074 95.3587 40.2302 95.5657 39.9986C95.6347 39.9169 95.6864 39.8011 95.7209 39.6512C95.7554 39.5014 95.783 39.3243 95.8037 39.1199C95.8244 38.9155 95.8382 38.701 95.8451 38.4762C95.852 38.2514 95.8554 38.03 95.8554 37.812C95.8554 37.6213 95.8589 37.3624 95.8658 37.0354C95.8727 36.7084 95.8796 36.3508 95.8865 35.9625C95.8934 35.5742 95.8968 35.1758 95.8968 34.767V28.861C95.8968 28.6158 95.8865 28.3876 95.8658 28.1764C95.8451 27.9653 95.814 27.7745 95.7726 27.6042C95.7312 27.4339 95.6692 27.3011 95.5864 27.2057C95.3932 26.9741 95.1552 26.8072 94.8723 26.705C94.5895 26.6029 94.2687 26.5313 93.9099 26.4905V26.2861H100.098V26.4905C99.8086 26.5313 99.4981 26.6063 99.167 26.7153C98.8358 26.8243 98.5806 27.0422 98.4012 27.3692C98.277 27.6008 98.2115 27.8937 98.2046 28.248C98.1977 28.6022 98.1873 28.936 98.1735 29.2493C98.1735 29.5899 98.1701 29.9271 98.1632 30.2609C98.1563 30.5947 98.1528 30.9319 98.1528 31.2725V38.1185C98.1528 38.5136 98.1597 38.8951 98.1735 39.2629C98.1873 39.6308 98.2494 39.8896 98.3598 40.0395C98.5254 40.2711 98.7875 40.4482 99.1463 40.5708C99.505 40.6935 99.8293 40.7684 100.119 40.7956V41ZM131.448 41H127.205C127.081 40.8774 126.991 40.7854 126.936 40.7241C126.88 40.6628 126.818 40.5913 126.749 40.5095C126.68 40.4278 126.594 40.3086 126.491 40.1519C126.387 39.9952 126.225 39.7602 126.004 39.4469C125.742 39.0654 125.511 38.7214 125.311 38.4149C125.111 38.1083 124.907 37.8052 124.7 37.5055C124.493 37.2057 124.269 36.9026 124.028 36.596C123.786 36.2895 123.5 35.9455 123.169 35.564C122.893 35.2507 122.593 34.9578 122.268 34.6853C121.944 34.4128 121.603 34.2425 121.244 34.1744C120.982 34.1199 120.782 34.0926 120.644 34.0926C120.52 34.0926 120.361 34.0858 120.168 34.0722V36.3815C120.168 37.0354 120.175 37.5872 120.188 38.0368C120.202 38.4728 120.216 38.8474 120.23 39.1608C120.244 39.4741 120.319 39.733 120.457 39.9373C120.568 40.1144 120.782 40.295 121.099 40.4789C121.416 40.6628 121.858 40.7684 122.424 40.7956V41H115.801V40.7956C116.146 40.7411 116.477 40.6594 116.794 40.5504C117.111 40.4414 117.36 40.2779 117.539 40.0599C117.608 39.9782 117.663 39.8556 117.705 39.6921C117.746 39.5286 117.777 39.3447 117.798 39.1403C117.819 38.936 117.836 38.718 117.85 38.4864C117.863 38.2548 117.87 38.03 117.87 37.812C117.87 37.6213 117.874 37.3624 117.881 37.0354C117.888 36.7084 117.894 36.3508 117.901 35.9625C117.908 35.5742 117.912 35.1758 117.912 34.767V29.5967C117.912 29.3515 117.908 29.1029 117.901 28.8508C117.894 28.5988 117.881 28.3604 117.86 28.1356C117.839 27.9108 117.805 27.7064 117.756 27.5225C117.708 27.3386 117.643 27.2057 117.56 27.124C117.353 26.906 117.122 26.7595 116.866 26.6846C116.611 26.6097 116.297 26.545 115.925 26.4905V26.2861H116.773C117.242 26.2861 117.774 26.2827 118.367 26.2759C118.96 26.2691 119.554 26.2657 120.147 26.2657H121.596C122.52 26.2657 123.341 26.2929 124.059 26.3474C124.776 26.4019 125.432 26.5858 126.025 26.8992C126.632 27.2125 127.122 27.6383 127.494 28.1764C127.867 28.7146 128.053 29.3924 128.053 30.2098C128.053 30.7139 127.96 31.1669 127.774 31.5688C127.588 31.9707 127.339 32.3249 127.029 32.6315C126.718 32.938 126.356 33.2003 125.942 33.4183C125.528 33.6362 125.094 33.8202 124.638 33.97V34.0313C124.873 34.154 125.101 34.3311 125.321 34.5627C125.542 34.7943 125.756 35.0531 125.963 35.3392C126.322 35.857 126.711 36.4155 127.132 37.015C127.553 37.6144 127.929 38.1458 128.26 38.609C128.771 39.3174 129.268 39.8351 129.75 40.1621C130.233 40.4891 130.799 40.7003 131.448 40.7956V41ZM125.673 30.0872C125.673 29.406 125.501 28.7997 125.156 28.2684C124.811 27.7371 124.307 27.3147 123.645 27.0014C123.314 26.8515 122.965 26.7425 122.6 26.6744C122.234 26.6063 121.851 26.5722 121.451 26.5722C121.161 26.5722 120.927 26.579 120.747 26.5926C120.568 26.6063 120.43 26.6199 120.333 26.6335C120.319 26.7153 120.306 26.7868 120.292 26.8481C120.278 26.9094 120.268 26.9877 120.261 27.0831C120.254 27.1785 120.247 27.3113 120.24 27.4816C120.233 27.6519 120.223 27.8937 120.209 28.2071C120.195 28.6839 120.185 29.2221 120.178 29.8215C120.171 30.421 120.168 31 120.168 31.5586V33.8065C120.733 33.8065 121.261 33.7827 121.751 33.735C122.241 33.6873 122.713 33.5886 123.169 33.4387C123.61 33.3025 123.99 33.1185 124.307 32.8869C124.624 32.6553 124.883 32.3931 125.083 32.1001C125.283 31.8072 125.432 31.4905 125.528 31.1499C125.625 30.8093 125.673 30.455 125.673 30.0872ZM159.071 37.0967L158.037 41H145.37V40.7956C145.715 40.7411 146.036 40.6526 146.332 40.53C146.629 40.4074 146.874 40.2371 147.067 40.0191C147.136 39.9373 147.191 39.8181 147.233 39.6614C147.274 39.5048 147.312 39.3243 147.346 39.1199C147.381 38.9155 147.405 38.701 147.419 38.4762C147.433 38.2514 147.44 38.03 147.44 37.812C147.44 37.6213 147.443 37.3624 147.45 37.0354C147.457 36.7084 147.464 36.3508 147.471 35.9625C147.478 35.5742 147.481 35.1758 147.481 34.767C147.481 34.3447 147.481 33.9496 147.481 33.5817V29.5967C147.481 29.3515 147.478 29.0995 147.471 28.8406C147.464 28.5817 147.45 28.3365 147.429 28.1049C147.409 27.8733 147.374 27.6655 147.326 27.4816C147.278 27.2977 147.212 27.1649 147.129 27.0831C146.922 26.8651 146.701 26.7255 146.467 26.6642C146.232 26.6029 145.929 26.545 145.556 26.4905V26.2861H156.981L158.388 29.658L158.181 29.7602C157.064 28.3842 156.015 27.4578 155.035 26.9809C154.801 26.8719 154.366 26.7766 153.732 26.6948C153.097 26.6131 152.324 26.5722 151.413 26.5722C151.124 26.5722 150.824 26.5824 150.513 26.6029C150.203 26.6233 149.978 26.6471 149.841 26.6744C149.813 26.8924 149.789 27.342 149.768 28.0232C149.747 28.7044 149.737 29.4945 149.737 30.3937C149.737 30.9114 149.737 31.3474 149.737 31.7016C149.737 32.0559 149.74 32.3454 149.747 32.5702C149.754 32.795 149.758 32.9687 149.758 33.0913C149.758 33.2003 149.758 33.2752 149.758 33.3161C149.827 33.3161 149.965 33.3161 150.172 33.3161C150.379 33.3161 150.617 33.3093 150.886 33.2956C151.155 33.282 151.424 33.265 151.693 33.2446C151.962 33.2241 152.186 33.1935 152.366 33.1526C152.779 33.0572 153.124 32.9278 153.4 32.7643C153.676 32.6008 153.901 32.4033 154.073 32.1717C154.246 31.9401 154.384 31.671 154.487 31.3644C154.59 31.0579 154.684 30.7139 154.766 30.3324H155.015V36.7698H154.766C154.656 36.3338 154.487 35.8842 154.259 35.421C154.032 34.9578 153.794 34.6104 153.545 34.3787C153.325 34.188 153.059 34.0313 152.748 33.9087C152.438 33.7861 152.076 33.7112 151.662 33.6839C151.455 33.6703 151.282 33.6601 151.144 33.6533C151.006 33.6465 150.868 33.6431 150.73 33.6431C150.606 33.6431 150.468 33.6431 150.317 33.6431C150.179 33.6431 149.999 33.6431 149.778 33.6431C149.751 33.8338 149.737 34.1131 149.737 34.4809C149.737 34.8488 149.737 35.2302 149.737 35.6253C149.737 35.8025 149.737 36.0068 149.737 36.2384C149.737 36.47 149.737 36.7016 149.737 36.9332C149.737 37.1512 149.74 37.359 149.747 37.5565C149.754 37.7541 149.758 37.921 149.758 38.0572C149.772 38.4932 149.796 38.9053 149.83 39.2936C149.865 39.6819 149.944 39.9714 150.068 40.1621C150.192 40.3529 150.489 40.4891 150.958 40.5708C151.427 40.6526 151.938 40.6935 152.49 40.6935C152.724 40.6935 153.024 40.6866 153.39 40.673C153.756 40.6594 154.139 40.6253 154.539 40.5708C154.98 40.5163 155.387 40.4108 155.76 40.2541C156.132 40.0974 156.491 39.876 156.836 39.5899C157.181 39.3038 157.516 38.953 157.84 38.5375C158.164 38.1219 158.499 37.6213 158.844 37.0354L159.071 37.0967Z" fill="black"/>
</g>
</g>
<defs>
<clipPath id="clip0">
<rect width="160" height="68" fill="white"/>
</clipPath>
<clipPath id="clip1">
<rect width="121.071" height="15" fill="white" transform="translate(38 26)"/>
</clipPath>
</defs>
</svg>
