<svg width="91" height="68" viewBox="0 0 91 68" fill="none" xmlns="http://www.w3.org/2000/svg">
<g clip-path="url(#clip0)">
<path fill-rule="evenodd" clip-rule="evenodd" d="M50.9999 34.7431C50.9999 31.1164 49.2433 28.2548 45.8858 28.2548C42.5141 28.2548 40.4741 31.1164 40.4741 34.7148C40.4741 38.9789 42.8824 41.1323 46.3391 41.1323C48.0249 41.1323 49.2999 40.7498 50.2633 40.2114V37.3781C49.2999 37.8598 48.1949 38.1573 46.7924 38.1573C45.4183 38.1573 44.1999 37.6756 44.0441 36.0039H50.9716C50.9716 35.8198 50.9999 35.0831 50.9999 34.7431ZM44.0016 33.3973C44.0016 31.7964 44.9791 31.1306 45.8716 31.1306C46.7358 31.1306 47.6566 31.7964 47.6566 33.3973H44.0016Z" fill="black"/>
<path fill-rule="evenodd" clip-rule="evenodd" d="M35.006 28.2548C33.6177 28.2548 32.7252 28.9064 32.2294 29.3598L32.0452 28.4814H28.9285V44.9998L32.4702 44.2489L32.4844 40.2398C32.9944 40.6081 33.7452 41.1323 34.9919 41.1323C37.5277 41.1323 39.8369 39.0923 39.8369 34.6014C39.8227 30.4931 37.4852 28.2548 35.006 28.2548ZM34.156 38.0156C33.3202 38.0156 32.8244 37.7181 32.4844 37.3498L32.4702 32.0939C32.8385 31.6831 33.3485 31.3998 34.156 31.3998C35.4452 31.3998 36.3377 32.8448 36.3377 34.7006C36.3377 36.5989 35.4594 38.0156 34.156 38.0156Z" fill="black"/>
<path fill-rule="evenodd" clip-rule="evenodd" d="M24.0548 27.4192L27.6107 26.6542V23.7783L24.0548 24.5292V27.4192Z" fill="black"/>
<path d="M27.6107 28.4957H24.0548V40.8915H27.6107V28.4957Z" fill="black"/>
<path fill-rule="evenodd" clip-rule="evenodd" d="M20.2443 29.5445L20.0176 28.4962H16.9576V40.892H20.4993V32.4912C21.3351 31.4003 22.7518 31.5987 23.191 31.7545V28.4962C22.7376 28.3262 21.0801 28.0145 20.2443 29.5445Z" fill="black"/>
<path fill-rule="evenodd" clip-rule="evenodd" d="M13.1607 25.4216L9.70405 26.1582L9.68988 37.5057C9.68988 39.6024 11.2624 41.1466 13.359 41.1466C14.5207 41.1466 15.3707 40.9341 15.8382 40.6791V37.8032C15.3849 37.9874 13.1465 38.6391 13.1465 36.5424V31.5132H15.8382V28.4957H13.1465L13.1607 25.4216Z" fill="black"/>
<path fill-rule="evenodd" clip-rule="evenodd" d="M3.58417 32.0939C3.58417 31.5414 4.0375 31.3289 4.78833 31.3289C5.865 31.3289 7.225 31.6548 8.30167 32.2356V28.9064C7.12583 28.4389 5.96417 28.2548 4.78833 28.2548C1.9125 28.2548 0 29.7564 0 32.2639C0 36.1739 5.38333 35.5506 5.38333 37.2364C5.38333 37.8881 4.81667 38.1006 4.02333 38.1006C2.8475 38.1006 1.34583 37.6189 0.155833 36.9673V40.3389C1.47333 40.9056 2.805 41.1464 4.02333 41.1464C6.97 41.1464 8.99583 39.6873 8.99583 37.1514C8.98167 32.9298 3.58417 33.6806 3.58417 32.0939Z" fill="black"/>
</g>
<defs>
<clipPath id="clip0">
<rect width="91" height="68" fill="white"/>
</clipPath>
</defs>
</svg>
