<svg width="122" height="15" viewBox="0 0 122 15" fill="none" xmlns="http://www.w3.org/2000/svg">
<path fill-rule="evenodd" clip-rule="evenodd" d="M13.1013 3.71935L12.8943 3.82153C12.3286 3.1267 11.7905 2.53406 11.2799 2.0436C10.7694 1.55313 10.2727 1.1921 9.78975 0.96049C9.55518 0.851498 9.1309 0.759537 8.51688 0.684605C7.90286 0.609673 7.18881 0.572207 6.37472 0.572207C6.23674 0.572207 6.07806 0.575613 5.89869 0.582425C5.71931 0.589237 5.54684 0.596049 5.38126 0.602861C5.21568 0.609673 5.06045 0.616485 4.91557 0.623297C4.77069 0.630109 4.66376 0.633515 4.59477 0.633515C4.58097 0.715259 4.56372 0.797002 4.54302 0.878747C4.52233 0.960491 4.50508 1.05586 4.49128 1.16485C4.47748 1.27384 4.46369 1.41349 4.44989 1.58379C4.43609 1.75409 4.42229 1.96185 4.40849 2.20708C4.39469 2.68393 4.38435 3.20504 4.37745 3.77044C4.37055 4.33583 4.3671 4.87057 4.3671 5.37466V7.31608H4.73965C4.96042 7.31608 5.20533 7.30926 5.4744 7.29564C5.74346 7.28202 6.02287 7.26499 6.31263 7.24455C6.60239 7.22411 6.84386 7.19346 7.03703 7.15259C7.53376 7.0436 7.92701 6.90055 8.21677 6.72343C8.50653 6.54632 8.7342 6.33515 8.89977 6.08992C9.06535 5.84469 9.18263 5.57561 9.25163 5.2827C9.32062 4.98978 9.38271 4.67303 9.4379 4.33243H9.68627V10.9128H9.4379C9.32751 10.4768 9.16884 10.017 8.96187 9.53338C8.75489 9.04973 8.50653 8.67848 8.21677 8.41962C7.9546 8.18801 7.67519 8.01431 7.37853 7.8985C7.08187 7.7827 6.73347 7.71117 6.33333 7.68392C6.12636 7.6703 5.94698 7.66008 5.7952 7.65327C5.64342 7.64646 5.49854 7.64305 5.36056 7.64305H4.3671V10.1771C4.3671 10.5586 4.37055 10.9094 4.37745 11.2296C4.38435 11.5497 4.3878 11.8256 4.3878 12.0572C4.40159 12.4932 4.42574 12.9053 4.46024 13.2936C4.49473 13.6819 4.57407 13.9714 4.69825 14.1621C4.82244 14.3529 5.03286 14.4993 5.32952 14.6015C5.62618 14.7037 6.05736 14.7684 6.62309 14.7956V15H0V14.7956C0.344954 14.7411 0.665757 14.6526 0.962417 14.53C1.25908 14.4074 1.50399 14.2371 1.69717 14.0191C1.76616 13.9373 1.82135 13.8181 1.86274 13.6614C1.90414 13.5048 1.94208 13.3243 1.97658 13.1199C2.01107 12.9155 2.03522 12.701 2.04902 12.4762C2.06282 12.2514 2.06972 12.03 2.06972 11.812C2.06972 11.6213 2.07316 11.3624 2.08006 11.0354C2.08696 10.7084 2.09386 10.3508 2.10076 9.96253C2.10766 9.57425 2.11111 9.17575 2.11111 8.76703V3.59673C2.11111 3.3515 2.10766 3.09946 2.10076 2.8406C2.09386 2.58174 2.08006 2.33651 2.05937 2.1049C2.03867 1.8733 2.00417 1.66553 1.95588 1.48161C1.90759 1.29768 1.84205 1.16485 1.75926 1.08311C1.55229 0.865122 1.33152 0.725477 1.09695 0.664169C0.86238 0.602861 0.558825 0.544959 0.186274 0.490463V0.286104H11.6939L13.1013 3.71935ZM35.7164 15V14.7956C35.7578 14.7956 35.8578 14.782 36.0165 14.7548C36.1752 14.7275 36.3407 14.6798 36.5132 14.6117C36.6857 14.5436 36.8375 14.4482 36.9686 14.3256C37.0996 14.203 37.1652 14.0463 37.1652 13.8556C37.1652 13.733 37.1272 13.532 37.0513 13.2527C36.9755 12.9734 36.8685 12.6328 36.7305 12.2309C36.5926 11.829 36.4339 11.3828 36.2545 10.8924C36.0751 10.4019 35.882 9.89101 35.675 9.35967H30.1695C29.9626 9.87739 29.7625 10.3713 29.5693 10.8413C29.3762 11.3113 29.183 11.7847 28.9898 12.2616C28.7 12.9973 28.5552 13.515 28.5552 13.8147C28.5552 13.9918 28.6104 14.1383 28.7207 14.2541C28.8311 14.3699 28.9726 14.4653 29.145 14.5402C29.3175 14.6151 29.5038 14.6696 29.7039 14.7037C29.9039 14.7377 30.0937 14.7684 30.273 14.7956V15H25.8645V14.7752C26.2233 14.7343 26.5303 14.639 26.7856 14.4891C27.0408 14.3392 27.1892 14.2371 27.2306 14.1826C27.3271 14.0872 27.4858 13.8624 27.7066 13.5082C27.9274 13.1539 28.1964 12.6294 28.5138 11.9346C28.8035 11.2943 29.1278 10.5654 29.4865 9.74796C29.8453 8.93051 30.2144 8.08924 30.5938 7.22411C30.9733 6.35899 31.3493 5.48706 31.7218 4.60831C32.0944 3.72956 32.4462 2.90872 32.7774 2.14578L32.5704 1.69619C32.8188 1.58719 33.043 1.45777 33.2431 1.3079C33.4431 1.15804 33.6191 1.00136 33.7709 0.837875C33.9226 0.674386 34.0503 0.517712 34.1537 0.367847C34.2572 0.217983 34.3366 0.0953683 34.3918 0H34.5573C34.9851 1.1308 35.3921 2.20367 35.7785 3.21866C36.1648 4.23366 36.5339 5.21117 36.8858 6.15123C37.2376 7.09129 37.5791 8.00068 37.9103 8.87943C38.2414 9.75818 38.5726 10.6267 38.9037 11.485C39.0555 11.9074 39.197 12.2582 39.328 12.5375C39.4591 12.8168 39.6074 13.1335 39.773 13.4877C39.8006 13.5422 39.8627 13.6376 39.9593 13.7738C40.0559 13.9101 40.1835 14.0497 40.3422 14.1928C40.5009 14.3358 40.6975 14.4619 40.9321 14.5708C41.1666 14.6798 41.4426 14.7411 41.7599 14.7548V15H35.7164ZM33.0051 2.6158C32.9223 2.79292 32.8015 3.07221 32.6429 3.45368C32.4842 3.83515 32.2876 4.29836 32.053 4.84332C31.8184 5.38829 31.5597 6.00477 31.2768 6.69278C30.994 7.38079 30.687 8.1267 30.3558 8.93052H35.5094C35.2748 8.31744 35.0368 7.70436 34.7954 7.09128C34.5539 6.4782 34.3193 5.88897 34.0917 5.32357C33.864 4.75817 33.657 4.24047 33.4707 3.77044C33.2845 3.30041 33.1292 2.91553 33.0051 2.6158ZM62.119 15H55.8478V14.7956C56.1928 14.7411 56.5136 14.6526 56.8102 14.53C57.1069 14.4074 57.3587 14.2302 57.5657 13.9986C57.6347 13.9169 57.6864 13.8011 57.7209 13.6512C57.7554 13.5014 57.783 13.3243 57.8037 13.1199C57.8244 12.9155 57.8382 12.701 57.8451 12.4762C57.852 12.2514 57.8554 12.03 57.8554 11.812C57.8554 11.6213 57.8589 11.3624 57.8658 11.0354C57.8727 10.7084 57.8796 10.3508 57.8865 9.96253C57.8934 9.57425 57.8968 9.17575 57.8968 8.76703V2.86104C57.8968 2.6158 57.8865 2.3876 57.8658 2.17643C57.8451 1.96526 57.814 1.77452 57.7726 1.60422C57.7313 1.43392 57.6692 1.30109 57.5864 1.20572C57.3932 0.974113 57.1552 0.807221 56.8723 0.705041C56.5895 0.602861 56.2687 0.531335 55.9099 0.490463V0.286104H62.0984V0.490463C61.8086 0.531335 61.4981 0.606266 61.167 0.715259C60.8358 0.824251 60.5806 1.04223 60.4012 1.36921C60.277 1.60082 60.2115 1.89373 60.2046 2.24796C60.1977 2.60218 60.1873 2.93597 60.1735 3.24932C60.1735 3.58992 60.1701 3.92711 60.1632 4.2609C60.1563 4.59469 60.1528 4.93188 60.1528 5.27248V12.1185C60.1528 12.5136 60.1597 12.8951 60.1735 13.2629C60.1873 13.6308 60.2494 13.8896 60.3598 14.0395C60.5254 14.2711 60.7875 14.4482 61.1463 14.5708C61.505 14.6935 61.8293 14.7684 62.119 14.7956V15ZM93.4476 15H89.2047C89.0805 14.8774 88.9908 14.7854 88.9357 14.7241C88.8805 14.6628 88.8184 14.5913 88.7494 14.5095C88.6804 14.4278 88.5941 14.3086 88.4907 14.1519C88.3872 13.9952 88.2251 13.7602 88.0043 13.4469C87.7421 13.0654 87.511 12.7214 87.3109 12.4149C87.1108 12.1083 86.9073 11.8052 86.7004 11.5055C86.4934 11.2057 86.2692 10.9026 86.0277 10.596C85.7862 10.2895 85.4999 9.94551 85.1688 9.56403C84.8928 9.25068 84.5927 8.95777 84.2684 8.68529C83.9442 8.41281 83.6027 8.24251 83.2439 8.17439C82.9818 8.11989 82.7817 8.09264 82.6437 8.09264C82.5195 8.09264 82.3609 8.08583 82.1677 8.07221V10.3815C82.1677 11.0354 82.1746 11.5872 82.1884 12.0368C82.2022 12.4728 82.216 12.8474 82.2298 13.1608C82.2436 13.4741 82.3195 13.733 82.4574 13.9373C82.5678 14.1144 82.7817 14.295 83.0991 14.4789C83.4164 14.6628 83.8579 14.7684 84.4237 14.7956V15H77.8006V14.7956C78.1455 14.7411 78.4767 14.6594 78.794 14.5504C79.1114 14.4414 79.3598 14.2779 79.5391 14.0599C79.6081 13.9782 79.6633 13.8556 79.7047 13.6921C79.7461 13.5286 79.7772 13.3447 79.7979 13.1403C79.8186 12.936 79.8358 12.718 79.8496 12.4864C79.8634 12.2548 79.8703 12.03 79.8703 11.812C79.8703 11.6213 79.8737 11.3624 79.8806 11.0354C79.8875 10.7084 79.8944 10.3508 79.9013 9.96253C79.9082 9.57425 79.9117 9.17575 79.9117 8.76703V3.59673C79.9117 3.3515 79.9082 3.10286 79.9013 2.85082C79.8944 2.59877 79.8806 2.36036 79.8599 2.13556C79.8392 1.91076 79.8048 1.7064 79.7565 1.52248C79.7082 1.33855 79.6426 1.20572 79.5598 1.12398C79.3529 0.905994 79.1217 0.759537 78.8665 0.684605C78.6112 0.609673 78.2973 0.544959 77.9248 0.490463V0.286104H78.7734C79.2425 0.286104 79.7737 0.282698 80.367 0.275886C80.9604 0.269074 81.5537 0.265668 82.147 0.265668H83.5958C84.5203 0.265668 85.3412 0.292915 86.0587 0.347411C86.7763 0.401908 87.4317 0.585829 88.025 0.899183C88.6321 1.21254 89.1219 1.63828 89.4945 2.17643C89.867 2.71458 90.0533 3.39237 90.0533 4.20981C90.0533 4.7139 89.9602 5.16689 89.7739 5.5688C89.5876 5.97071 89.3392 6.32493 89.0288 6.63147C88.7183 6.93801 88.3561 7.20027 87.9422 7.41826C87.5282 7.63624 87.0936 7.82016 86.6383 7.97003V8.03133C86.8728 8.15395 87.1005 8.33106 87.3213 8.56267C87.542 8.79428 87.7559 9.05313 87.9629 9.33924C88.3216 9.85695 88.7114 10.4155 89.1323 11.015C89.5531 11.6144 89.9291 12.1458 90.2603 12.609C90.7708 13.3174 91.2675 13.8351 91.7505 14.1621C92.2334 14.4891 92.7991 14.7003 93.4476 14.7956V15ZM87.6731 4.08719C87.6731 3.40599 87.5007 2.79973 87.1557 2.26839C86.8107 1.73705 86.3071 1.31472 85.6448 1.00136C85.3137 0.851498 84.9652 0.742507 84.5996 0.674387C84.2339 0.606267 83.8511 0.572207 83.4509 0.572207C83.1611 0.572207 82.9266 0.579019 82.7472 0.592643C82.5678 0.606267 82.4298 0.619891 82.3333 0.633515C82.3195 0.715259 82.3057 0.786784 82.2919 0.848093C82.2781 0.909401 82.2677 0.987738 82.2608 1.08311C82.2539 1.17847 82.247 1.31131 82.2401 1.48161C82.2332 1.65191 82.2229 1.89373 82.2091 2.20708C82.1953 2.68393 82.1849 3.22207 82.178 3.82153C82.1711 4.42098 82.1677 5 82.1677 5.55858V7.80654C82.7334 7.80654 83.2612 7.7827 83.751 7.73501C84.2409 7.68733 84.7134 7.58856 85.1688 7.43869C85.6103 7.30245 85.9898 7.11853 86.3071 6.88692C86.6245 6.65531 86.8832 6.39305 87.0833 6.10014C87.2833 5.80722 87.4317 5.49046 87.5282 5.14986C87.6248 4.80926 87.6731 4.45504 87.6731 4.08719ZM121.071 11.0967L120.037 15H107.37V14.7956C107.715 14.7411 108.036 14.6526 108.332 14.53C108.629 14.4074 108.874 14.2371 109.067 14.0191C109.136 13.9373 109.191 13.8181 109.233 13.6614C109.274 13.5048 109.312 13.3243 109.346 13.1199C109.381 12.9155 109.405 12.701 109.419 12.4762C109.433 12.2514 109.44 12.03 109.44 11.812C109.44 11.6213 109.443 11.3624 109.45 11.0354C109.457 10.7084 109.464 10.3508 109.471 9.96253C109.478 9.57425 109.481 9.17575 109.481 8.76703C109.481 8.34468 109.481 7.94959 109.481 7.58174V3.59673C109.481 3.3515 109.478 3.09946 109.471 2.8406C109.464 2.58174 109.45 2.33651 109.429 2.1049C109.409 1.8733 109.374 1.66553 109.326 1.48161C109.278 1.29768 109.212 1.16485 109.129 1.08311C108.922 0.865122 108.701 0.725477 108.467 0.664169C108.232 0.602861 107.929 0.544959 107.556 0.490463V0.286104H118.981L120.388 3.65804L120.181 3.76022C119.064 2.38419 118.015 1.45777 117.035 0.980926C116.801 0.871934 116.366 0.776567 115.732 0.694823C115.097 0.613079 114.324 0.572207 113.413 0.572207C113.124 0.572207 112.824 0.582425 112.513 0.602861C112.203 0.623297 111.978 0.647139 111.84 0.674387C111.813 0.892372 111.789 1.34196 111.768 2.02316C111.747 2.70436 111.737 3.49455 111.737 4.39373C111.737 4.91145 111.737 5.34741 111.737 5.70163C111.737 6.05586 111.74 6.34537 111.747 6.57016C111.754 6.79496 111.758 6.96866 111.758 7.09128C111.758 7.20027 111.758 7.2752 111.758 7.31608C111.827 7.31608 111.965 7.31608 112.172 7.31608C112.379 7.31608 112.617 7.30926 112.886 7.29564C113.155 7.28202 113.424 7.26499 113.693 7.24455C113.962 7.22411 114.186 7.19346 114.366 7.15259C114.779 7.05722 115.124 6.92779 115.4 6.76431C115.676 6.60082 115.901 6.40327 116.073 6.17166C116.246 5.94005 116.384 5.67098 116.487 5.36444C116.59 5.0579 116.684 4.7139 116.766 4.33243H117.015V10.7698H116.766C116.656 10.3338 116.487 9.8842 116.259 9.42098C116.032 8.95776 115.794 8.61036 115.545 8.37875C115.325 8.18801 115.059 8.03134 114.748 7.90872C114.438 7.7861 114.076 7.71117 113.662 7.68392C113.455 7.6703 113.282 7.66008 113.144 7.65327C113.006 7.64646 112.868 7.64305 112.73 7.64305C112.606 7.64305 112.468 7.64305 112.317 7.64305C112.179 7.64305 111.999 7.64305 111.778 7.64305C111.751 7.83379 111.737 8.11308 111.737 8.48093C111.737 8.84878 111.737 9.23024 111.737 9.62534C111.737 9.80245 111.737 10.0068 111.737 10.2384C111.737 10.47 111.737 10.7016 111.737 10.9332C111.737 11.1512 111.74 11.359 111.747 11.5565C111.754 11.7541 111.758 11.921 111.758 12.0572C111.772 12.4932 111.796 12.9053 111.83 13.2936C111.865 13.6819 111.944 13.9714 112.068 14.1621C112.192 14.3529 112.489 14.4891 112.958 14.5708C113.427 14.6526 113.938 14.6935 114.49 14.6935C114.724 14.6935 115.024 14.6866 115.39 14.673C115.756 14.6594 116.139 14.6253 116.539 14.5708C116.98 14.5163 117.387 14.4108 117.76 14.2541C118.132 14.0974 118.491 13.876 118.836 13.5899C119.181 13.3038 119.516 12.953 119.84 12.5375C120.164 12.1219 120.499 11.6213 120.844 11.0354L121.071 11.0967Z" fill="#1F1D1F"/>
</svg>
