<svg width="1080" height="374" viewBox="0 0 1080 374" fill="none" xmlns="http://www.w3.org/2000/svg">
<g clip-path="url(#clip0)">
<g clip-path="url(#clip1)">
<rect x="185.199" y="257.336" width="10.9462" height="117.121" fill="#B6D2E1"/>
<rect width="40.2545" height="117.121" transform="matrix(-1 0 0 1 236.4 257.336)" fill="#6A9BB7"/>
<path d="M236.4 257.336H385.98V333.946H236.4V257.336Z" fill="#6A9BB7"/>
<path d="M466.378 257.336H385.98V374.457H466.378V257.336Z" fill="#8BB7D0"/>
<mask id="mask0" mask-type="alpha" maskUnits="userSpaceOnUse" x="393" y="265" width="66" height="101">
<path d="M458.839 265.815H393.519V365.978H458.839V265.815Z" fill="#C4C4C4"/>
</mask>
<g mask="url(#mask0)">
<path d="M458.839 265.815H393.519V365.978H458.839V265.815Z" fill="#B6D2E1"/>
<path d="M393.518 298.698L458.839 298.698" stroke="#6CAFD6" stroke-width="2" stroke-linecap="round"/>
<path d="M418.711 289.242H433.647" stroke="#5993B4" stroke-width="3" stroke-linecap="round"/>
<path d="M418.711 323.325H433.647" stroke="#5993B4" stroke-width="3" stroke-linecap="round"/>
<path d="M418.711 356.557H433.647" stroke="#5993B4" stroke-width="3" stroke-linecap="round"/>
<path d="M393.518 332.768L458.839 332.768" stroke="#6CAFD6" stroke-width="2" stroke-linecap="round"/>
</g>
<path d="M466.378 257.336H540.443V374.457H466.378V257.336Z" fill="#6A9BB7"/>
<path d="M476.997 315.897H520.676V374.457H476.997V315.897Z" fill="#A7662C"/>
<path d="M476.997 315.897H520.676V320.538H476.997V315.897Z" fill="#925620"/>
<path d="M589.793 315.897H520.676V374.457H589.793V315.897Z" fill="#925620"/>
<path d="M574.48 331.099C574.48 328.634 572.482 326.636 570.017 326.636H546.645C544.18 326.636 542.182 328.634 542.182 331.099C542.182 333.564 544.18 335.562 546.645 335.562H570.017C572.482 335.562 574.48 333.564 574.48 331.099Z" fill="#7D430F"/>
<path d="M589.793 315.897H520.676V320.538H589.793V315.897Z" fill="#7D430F"/>
<path d="M593.563 315.897H520.676V302.382H593.563V315.897Z" fill="#925620"/>
<path d="M474.17 315.897H520.676V302.382H474.17V315.897Z" fill="#A7662C"/>
<path d="M486.087 285.378H520.676V302.382H486.087V285.378Z" fill="white"/>
<path d="M486.087 288.963H520.676" stroke="#D2E1F1"/>
<path d="M486.087 292.224H520.676" stroke="#D2E1F1"/>
<path d="M486.087 295.485H520.676" stroke="#D2E1F1"/>
<path d="M486.087 298.746H520.676" stroke="#D2E1F1"/>
<path d="M545.741 274.258H579.614C576.108 280.522 565.874 285.562 561.304 285.373H520.799C529.323 285.373 539.593 280.872 545.741 274.258Z" fill="#D2E1F1"/>
<path d="M580.442 285.378H520.676V302.382H580.442V285.378Z" fill="#D2E1F1"/>
<path d="M580.442 288.963H520.677" stroke="#B7D0EB"/>
<path d="M580.442 292.224H520.677" stroke="#B7D0EB"/>
<path d="M580.442 295.485H520.677" stroke="#B7D0EB"/>
<path d="M580.442 298.746H520.677" stroke="#B7D0EB"/>
<path d="M185.199 257.336H472.039V245.266H185.199V257.336Z" fill="#B6D2E1"/>
<path d="M548.925 257.336H472.039V245.266H548.925V257.336Z" fill="#8BB7D0"/>
<path d="M376.471 216.584H357.688L365.685 239.638H384.839L376.471 216.584Z" fill="#4C617F"/>
<path d="M376.471 216.584H357.688L359.191 220.919H378.044L376.471 216.584Z" fill="#344C68"/>
<path d="M365.685 239.638H384.84L383.826 236.847H364.717L365.685 239.638Z" fill="#344C68"/>
<path d="M345.974 243.975C345.974 241.214 348.212 238.975 350.974 238.975H393.373C396.134 238.975 398.373 241.214 398.373 243.975V245.267H345.974V243.975Z" fill="#4C617F"/>
<path d="M414.614 216.948C430.784 202.582 437.38 173.077 433.494 148.443H417.734L414.614 216.948Z" fill="#90A3C1"/>
<path d="M328.833 148.443H433.494L414.646 216.897H309.986L328.833 148.443Z" fill="#BCC8DC"/>
<mask id="mask1" mask-type="alpha" maskUnits="userSpaceOnUse" x="321" y="154" width="106" height="44">
<path d="M333.545 154.096H426.897L414.632 197.113H321.294L333.545 154.096Z" fill="#E9EDF4"/>
</mask>
<g mask="url(#mask1)">
<path d="M333.545 154.096H426.897L414.632 197.113H321.294L333.545 154.096Z" fill="#E9EDF4"/>
<rect width="3.35173" height="134.069" transform="matrix(0.707196 0.707017 -0.707196 0.707017 408.506 114.773)" fill="white"/>
<rect width="3.35173" height="134.069" transform="matrix(0.707197 0.707017 -0.707197 0.707017 432.21 138.47)" fill="white"/>
<rect width="13.4069" height="134.069" transform="matrix(0.707196 0.707017 -0.707196 0.707017 413.247 119.512)" fill="white"/>
</g>
<path d="M309.986 216.897H414.647L418.595 202.555H313.934L309.986 216.897Z" fill="#4C617F"/>
<path d="M437.543 182.482H603.574C609.097 182.482 613.574 186.959 613.574 192.482V236.791C613.574 242.314 618.051 246.791 623.574 246.791H681.812" stroke="#DDF4F8" stroke-width="3" stroke-linecap="round"/>
<path d="M226.215 310.831L208.653 374.282H203.437L216.826 310.831H226.215Z" fill="#8F725D"/>
<path d="M185.694 310.831L168.132 374.282H162.916L176.304 310.831H185.694Z" fill="#9D7964"/>
<ellipse rx="4.09581" ry="11.0484" transform="matrix(0.447604 -0.894232 0.894322 0.447423 249.153 343.339)" fill="black"/>
<path d="M245.762 332.143L235.821 352.494L248.76 358.015L258.089 338.558L245.762 332.143Z" fill="#C17E5D"/>
<path d="M258.089 338.558L245.762 332.143L241.819 340.215C247.501 341.681 250.332 342.89 254.535 345.971L258.089 338.558Z" fill="#A9623F"/>
<mask id="mask2" mask-type="alpha" maskUnits="userSpaceOnUse" x="231" y="349" width="39" height="26">
<path d="M231.576 361.275C232.623 355.489 234.554 352.645 236.407 351.009C243.909 346.219 252.98 356.561 255.313 364.969C260.59 365.26 267.306 366.14 269.326 374.343H236.407C234.668 370.075 230.53 367.06 231.576 361.275Z" fill="#656565"/>
</mask>
<g mask="url(#mask2)">
<path d="M231.576 361.275C232.623 355.489 234.554 352.645 236.407 351.009C243.909 346.219 252.98 356.561 255.313 364.969C260.59 365.26 264.998 368.345 266.499 374.343H236.407C234.668 370.075 230.53 367.06 231.576 361.275Z" fill="#471813"/>
<path d="M250.367 375.118C245.49 358.8 231.202 354.667 231.637 365.543C231.216 369.508 232.357 371.517 234.278 375.118H250.367Z" fill="#672C26"/>
</g>
<path d="M256.731 294.954L239.442 338.187C246.373 337.038 256.023 340.398 259.132 347.942L284.152 294.954H256.731Z" fill="#283352"/>
<path d="M302.021 364.698L295.666 343.96L309.095 336.288L317.009 362.42L309.935 368.174L302.021 364.698Z" fill="#C17E5D"/>
<path d="M340.106 374.457H298.32C297.484 369.871 298.089 366.954 298.811 362.942C299.048 361.621 300.473 360.891 301.693 361.451C303.585 362.319 305.178 362.831 307.665 362.751C311.126 362.641 312.866 360.809 316.044 359.422C317.97 359.569 320.981 361.747 324.101 363.503C327.532 365.435 336.299 365.183 340.106 374.457Z" fill="#471813"/>
<path d="M281.559 276.769H251.352L260.427 306.076H278.328L293.248 349.7C301.998 349.142 307.802 347.589 315.074 342.677L300.829 291.414C298.424 282.759 290.543 276.769 281.559 276.769Z" fill="#474E67"/>
<path d="M214.487 170.896L199.142 209.292L212.103 213.422L217.288 200.41C217.288 200.41 221.085 201.216 223.424 200.41C225.763 199.604 226.563 196.795 228.554 191.239H230.978C231.657 191.239 232.139 190.576 231.929 189.93L230.3 184.905C230.854 180.909 230.798 177.959 230.605 174.777L214.487 170.896Z" fill="#C17E5D"/>
<path d="M230.969 179.799C230.753 179.439 230.392 179.222 229.959 179.078C229.598 178.934 229.165 178.862 228.732 178.934C227.866 179.006 227.145 179.511 226.712 180.232C227.145 180.16 227.433 180.016 227.794 179.872C228.155 179.799 228.444 179.727 228.804 179.655C229.526 179.655 230.175 179.727 230.969 179.799Z" fill="#270D1A"/>
<path d="M228.444 184.777C228.005 184.777 227.65 184.195 227.65 183.478C227.65 182.761 228.005 182.18 228.444 182.18C228.882 182.18 229.237 182.761 229.237 183.478C229.237 184.195 228.882 184.777 228.444 184.777Z" fill="#270D1A"/>
<path d="M226.985 195.737C225.832 195.554 224.167 194.248 223.621 192.508C225.189 193.327 226.661 193.567 227.715 193.67L226.985 195.737Z" fill="white"/>
<path d="M218.795 181.435C216.972 179.183 215.011 183.103 218.244 185.275" stroke="#B25425" stroke-linecap="round"/>
<path d="M218.422 188.835C213.302 192.967 209.608 194.297 204.905 194.885C195.278 182.821 194.397 170.031 204.905 164.378C215.412 158.725 229.265 159.667 232.563 177.52L224.699 177.52L221.846 184.271C219.564 169.534 207.17 182.488 218.422 188.835Z" fill="#62221B"/>
<mask id="mask3" mask-type="alpha" maskUnits="userSpaceOnUse" x="188" y="202" width="53" height="68">
<path d="M224.52 209.253C211.049 198.101 193.512 200.925 188.34 216.715C204.121 252.297 215.195 265.286 240.999 269.562C231.926 245.5 238.622 216.695 224.52 209.253Z" fill="#FAA546"/>
</mask>
<g mask="url(#mask3)">
<path d="M224.52 209.253C211.049 198.101 193.512 200.925 188.34 216.715C204.121 252.297 215.195 265.286 240.999 269.562C231.926 245.5 238.622 216.695 224.52 209.253Z" fill="#F5C75A"/>
<path d="M252.294 228.777C249.6 237.494 246.527 242.023 240.486 248.109L216.829 232.594C212.625 229.837 210.989 224.47 212.941 219.837C215.362 214.089 222.257 211.742 227.682 214.819L252.294 228.777Z" fill="#E69050"/>
</g>
<path d="M261.632 245.266L244.496 237.398L247.651 224.068L266.828 233.74L297.215 238.128C297.837 238.218 298.469 238.189 299.08 238.045L302.816 237.161C304.451 236.775 306.167 236.913 307.719 237.556L316.529 241.206C320.068 242.428 323.666 243.118 321.176 245.266H261.632Z" fill="#C17E5D"/>
<path d="M251.101 224.066C248.407 232.783 245.334 237.312 239.293 243.398L210.814 224.72C209.222 223.676 207.952 222.211 207.146 220.487C202.902 211.419 212.824 202.262 221.524 207.217L251.101 224.066Z" fill="#F9AF41"/>
<mask id="mask4" mask-type="alpha" maskUnits="userSpaceOnUse" x="164" y="215" width="99" height="88">
<path d="M186.168 215.353C174.975 215.477 171.141 217.193 164.769 220.564V302.446H262.61C262.61 262.72 236.824 273.543 224.056 257.885C216.45 245.373 218.672 233.797 212.361 226.625C206.049 219.453 195.624 215.184 186.168 215.353Z" fill="#86BDFD"/>
</mask>
<g mask="url(#mask4)">
<path d="M186.168 215.353C174.975 215.477 171.141 217.193 164.769 220.564V302.446H262.61C262.61 262.72 236.824 273.543 224.056 257.885C216.45 245.373 218.672 233.797 212.361 226.625C206.049 219.453 195.624 215.184 186.168 215.353Z" fill="white"/>
<path d="M178.389 235.815C173.947 228.901 170.052 221.598 164.384 219.049L181.587 306.068H196.968C193.424 277.913 190.275 264.512 182.735 244.558C181.688 240.622 187.232 234.58 186.169 228.901L178.389 235.815Z" fill="#E7E7E7"/>
</g>
<path d="M257.103 310.831L274.665 374.282H279.881L266.492 310.831H257.103Z" fill="#9D7964"/>
<path d="M164.769 302.446H264.718C267.323 302.446 269.434 304.558 269.434 307.162C269.434 309.767 267.323 311.879 264.718 311.879H164.769V302.446Z" fill="#D5AC6F"/>
<path d="M146.583 198.382V217.816H158.221V211.404C158.221 211.404 164.81 213.273 169.126 211.404C170.822 210.529 170.583 209.723 170.561 206.872C170.559 206.627 170.604 206.382 170.692 206.153L171.101 205.09C171.261 204.673 171.277 204.216 171.147 203.789L170.559 201.862L171.989 200.749C172.403 200.427 172.497 199.841 172.206 199.405C170.84 197.36 169.995 196.059 169.995 195.168C169.995 192.352 170.16 186.245 165.184 182.278L146.583 198.382Z" fill="#E0BA97"/>
<path d="M168.488 192.984C168.221 192.727 167.865 192.625 167.464 192.601C167.124 192.56 166.739 192.597 166.387 192.757C165.666 193.016 165.167 193.61 164.964 194.323C165.316 194.163 165.528 193.974 165.802 193.769C166.093 193.626 166.322 193.498 166.613 193.355C167.227 193.19 167.796 193.104 168.488 192.984Z" fill="#270D1A"/>
<path d="M167.474 197.796C167.101 197.896 166.666 197.482 166.502 196.872C166.339 196.262 166.509 195.686 166.882 195.586C167.255 195.486 167.69 195.9 167.853 196.51C168.017 197.12 167.847 197.696 167.474 197.796Z" fill="#270D1A"/>
<path d="M156.187 200.378C153.876 198.911 152.765 202.333 155.746 203.132" stroke="#CF9375" stroke-linecap="round"/>
<path d="M173.233 233.105C169.495 211.091 140.921 209.741 140.921 223.2C141.054 231.555 141.414 235.946 143.853 241.938L160.862 248.232L173.233 233.105Z" fill="#E0BA97"/>
<path d="M135.137 233.849C135.146 230.789 141.875 220.811 141.875 220.811L140.861 243.41C140.861 243.41 135.128 236.909 135.137 233.849Z" fill="#E0BA97"/>
<path d="M149.254 339.586C152.629 332.959 158.605 327.367 158.605 321.53L137.26 320.95C134.748 323.145 133.027 326.886 132.34 329.68C130.53 337.047 133.721 343.944 131.596 349.101C130.553 351.631 127.529 353.491 127.231 356.97C126.883 360.536 129.514 363.188 132.936 367.273C134.74 369.427 136.262 371.444 137.695 372.984C138.513 373.862 139.685 374.282 140.885 374.282H147.195C148.455 374.282 149.772 373.016 149.198 371.707C148.416 369.922 145.6 370.545 144.322 368.856C143.501 366.077 143.037 364.596 142.209 362.024C142.334 358.965 142.386 357.214 142.209 354.314L149.254 339.586Z" fill="#CF9375"/>
<path d="M153.966 339.586C157.34 332.959 163.317 327.367 163.317 321.53L146.683 323.777C143.132 327.505 140.466 331.83 139.166 335.664C137.285 341.217 137.566 346.046 136.308 349.101C135.265 351.631 132.241 353.491 131.942 356.97C131.595 360.536 133.265 363.157 138.24 367.343C141.041 369.701 142.222 371.513 143.398 372.938C144.161 373.864 145.34 374.282 146.539 374.282H151.907C153.167 374.282 154.484 373.016 153.91 371.707C153.128 369.922 150.312 370.545 149.034 368.856C148.213 366.077 147.749 364.596 146.921 362.024C147.046 358.965 147.098 357.214 146.921 354.314L153.966 339.586Z" fill="#E0BA97"/>
<path d="M169.948 231.669C167.839 245.413 150.111 245.413 147.883 232.303C147.883 232.303 143.266 233.187 141.825 230.213C141.293 225.43 141.823 219.573 143.148 217.615C137.644 221.691 141.27 232.303 138.891 243.567C128.473 254.132 120.309 276.068 117.59 304.936C117.419 306.751 118.24 308.599 119.932 309.279C121.183 309.782 122.56 310.096 124.553 310.422L124.106 315.623C123.658 319.486 129.313 319.676 132.201 320.164C135.09 320.653 135.932 322.973 138.743 323.679C141.554 324.386 142.642 324.25 146.066 324.83C149.491 325.41 150.392 326.978 154.073 326.978C157.754 326.978 159.108 325.478 161.787 324.83C164.465 324.182 168.993 325.113 173.889 323.679L174.601 319.587C182.015 317.341 183.19 320.488 191.082 318.146C191.082 279.459 182.586 257.697 175.967 242.104C175.029 237.584 174.296 235.04 172.761 230.483L169.948 231.669Z" fill="#80B4A4"/>
<path d="M167.228 237.015C165.925 230.295 167.778 222.475 158.264 221.43C148.47 222.25 149.588 232.394 149.197 242.085L160.923 243.483L167.228 237.015Z" fill="#CF9375"/>
<path d="M169.948 231.669C167.839 245.413 150.111 245.413 147.883 232.303C147.883 232.303 143.266 233.187 141.825 230.213C141.293 225.43 141.822 219.573 143.148 217.615C137.644 221.691 141.269 232.303 138.891 243.567C138.616 243.846 138.343 244.132 138.072 244.426C150.413 255.666 167.416 254.853 175.966 242.104C175.029 237.584 174.296 235.04 172.761 230.483L169.948 231.669Z" fill="#6CA996"/>
<path d="M129.42 283.293C127.111 293.526 126.047 299.557 124.556 310.44C123.627 310.287 123.083 310.172 121.989 309.928L129.42 283.293Z" fill="#629E8B"/>
<path d="M133.929 267.57C136.4 260.389 139.062 255.073 142.544 248.252C142.544 248.252 139.039 252.103 136.907 257.117C134.775 262.132 133.929 267.57 133.929 267.57Z" fill="#629E8B"/>
<path d="M141.901 310.702C143.119 291.86 144.629 281.237 149.264 262.264C149.264 262.264 144.32 273.245 142.206 286.747C140.093 300.249 141.901 310.702 141.901 310.702Z" fill="#629E8B"/>
<path d="M161.01 299.778C163 282.428 162.005 276.792 164.658 260.658C164.658 260.658 161.548 272.413 161.01 280.194C160.472 287.975 161.01 299.778 161.01 299.778Z" fill="#629E8B"/>
<path d="M174.602 319.612C177.971 292.187 177.121 268.094 175.429 250.137C178.747 272.521 179.917 292.503 177.608 318.903C176.312 319.131 175.629 319.262 174.602 319.612Z" fill="#629E8B"/>
<path d="M169.929 232.361C164.915 213.844 148.976 218.625 147.817 232.361L144.698 232.885C147.51 214.02 165.794 213.434 170.954 231.562L169.929 232.361Z" fill="#6CA996"/>
<path d="M164.834 228.282C164.205 218.812 151.841 219.398 151.095 228.282C150.472 235.714 149.899 250.214 159.935 254.031C164.237 255.668 172.546 248.97 183.852 233.219C184.287 232.612 186.963 232.125 186.38 228.282C185.946 225.425 184.87 223.599 185.459 220.42C185.618 219.564 186.411 218.566 187.503 217.861C188.002 217.539 188.244 216.884 187.887 216.411C185.475 213.216 181.398 213.745 179.787 215.844C177.308 218.835 177.239 222.043 177.926 228.689C174.344 232.968 169.765 235.068 165.502 236.899L164.834 228.282Z" fill="#E0BA97"/>
<path d="M158.685 243.424C159.623 240.661 161.867 238.568 165.539 236.856L165.324 234.548C160.967 237.381 158.89 239.098 158.685 243.424Z" fill="#CF9375"/>
<mask id="mask5" mask-type="alpha" maskUnits="userSpaceOnUse" x="138" y="178" width="32" height="32">
<path d="M155.856 205.543C151.989 206.062 151.129 208.908 146.578 209.605C131.677 198.292 138.594 178.565 156.258 178.565C165.081 178.565 171.563 185.3 168.825 186.88C163.582 189.906 164.419 190.144 162.981 192.499C160.996 195.752 159.104 195.952 159.104 201.891C155.237 191.299 146.578 203.161 155.856 205.543Z" fill="#4D4D4D"/>
</mask>
<g mask="url(#mask5)">
<path d="M155.856 205.543C151.989 206.062 151.129 208.908 146.578 209.605C131.677 198.292 138.594 178.565 156.258 178.565C165.081 178.565 171.563 185.3 168.825 186.88C163.582 189.906 164.419 190.144 162.981 192.499C160.996 195.752 159.104 195.952 159.104 201.891C155.237 191.299 146.578 203.161 155.856 205.543Z" fill="#431E1B"/>
<path d="M141.038 207.556C142.12 197.843 142.176 193.415 141.038 187.877L133.407 197.289L141.038 207.556Z" fill="#370E0A"/>
</g>
<path d="M144.814 182.626C143.902 181.414 142.422 181.31 141.248 181.695L141.343 189.802C143.833 188.731 145.086 186.192 144.814 182.626Z" fill="#B95750"/>
<path d="M124.939 216.725C134.668 211.35 142.611 204.371 141.293 181.645C137.106 181.257 132.893 182.496 130.11 187.431C123.996 198.277 130.443 206.615 124.939 216.725Z" fill="#55211C"/>
<ellipse rx="2.50107" ry="3.18832" transform="matrix(0.912741 0.408539 -0.408718 0.912661 364.726 209.726)" fill="#344C68"/>
<mask id="mask6" mask-type="alpha" maskUnits="userSpaceOnUse" x="865" y="221" width="72" height="63">
<path d="M882.043 283.67C854.894 272.989 865.056 246.261 887.722 221.978C898.986 231.234 916.024 223.596 916.024 223.596C941.196 252.669 940.883 273.927 924.936 283.67H882.043Z" fill="#E18B5B"/>
</mask>
<g mask="url(#mask6)">
<path d="M882.043 283.67C854.894 272.989 865.056 246.261 887.722 221.978C898.986 231.234 916.024 223.596 916.024 223.596C941.196 252.669 940.883 273.927 924.936 283.67H882.043Z" fill="#C28776"/>
<path d="M874.504 283.67C847.355 272.989 857.517 246.261 880.183 221.978C891.447 231.234 908.486 223.596 908.486 223.596C933.657 252.669 930.517 273.927 914.57 283.67H874.504Z" fill="#D69E6C"/>
</g>
<mask id="mask7" mask-type="alpha" maskUnits="userSpaceOnUse" x="885" y="202" width="35" height="23">
<path d="M885.842 206.967L889.418 220.65C898.494 225.727 903.905 226.189 914.325 221.267L919.127 207.517C919.762 205.698 918.547 203.705 916.624 203.581C914.249 203.427 912.637 203.684 910.626 205.118C903.74 200.655 897.025 201.481 892.624 205.118C887.143 200.86 884.975 204.23 885.842 206.967Z" fill="#B2B2B2"/>
</mask>
<g mask="url(#mask7)">
<path d="M885.842 206.967L889.418 220.65C898.494 225.727 903.905 226.189 914.325 221.267L919.127 207.517C919.762 205.698 918.547 203.705 916.624 203.581C914.249 203.427 912.637 203.684 910.626 205.118C903.74 200.655 897.025 201.481 892.624 205.118C887.143 200.86 884.975 204.23 885.842 206.967Z" fill="#D69E6C"/>
<path d="M906.428 217.944L910.789 204.553L915.275 201.999L906.428 217.944Z" fill="#B46C59"/>
<path d="M895.634 219.939V202.155L892.11 202.934L895.634 219.939Z" fill="#B46C59"/>
</g>
<path d="M887.68 222.042C896.515 228.887 910.008 226.444 915.874 222.982" stroke="#9A5543" stroke-width="5" stroke-linecap="round"/>
<ellipse rx="16.5413" ry="17.9548" transform="matrix(0.965942 0.258758 -0.25888 0.965909 891.369 254.567)" fill="#EFD3A8"/>
<path d="M884.086 257.744C884.086 262.029 892.511 264.698 893.763 259.722C895.015 254.745 885.125 254.366 887.388 248.647C889.158 244.391 897.301 246.962 896.898 251.155" stroke="#783B2B" stroke-width="2.5" stroke-linecap="round"/>
<path d="M894.342 244.605L887.015 264.528" stroke="#783B2B" stroke-width="2.5" stroke-linecap="round"/>
<g opacity="0.3">
<path d="M952.11 204.044C947.132 203.101 944.461 200.614 943.489 194.692V204.044H952.11Z" fill="#F8DC94"/>
<path d="M952.11 204.044C947.132 204.987 944.461 207.474 943.489 213.396V204.044H952.11Z" fill="#F8DC94"/>
<path d="M934.868 204.044C939.845 203.101 942.517 200.614 943.489 194.692V204.044H934.868Z" fill="#F8DC94"/>
<path d="M934.868 204.044C939.845 204.987 942.517 207.474 943.489 213.396V204.044H934.868Z" fill="#F8DC94"/>
</g>
<g opacity="0.7">
<path d="M896.913 181.042C893.81 180.454 892.144 178.904 891.539 175.212V181.042H896.913Z" fill="#F8DC94"/>
<path d="M896.913 181.042C893.81 181.63 892.144 183.18 891.539 186.872V181.042H896.913Z" fill="#F8DC94"/>
<path d="M886.164 181.042C889.267 180.454 890.933 178.904 891.539 175.212V181.042H886.164Z" fill="#F8DC94"/>
<path d="M886.164 181.042C889.267 181.63 890.933 183.18 891.539 186.872V181.042H886.164Z" fill="#F8DC94"/>
</g>
<g opacity="0.8">
<path d="M958.354 246.754C956.272 246.359 955.155 245.319 954.748 242.842V246.754H958.354Z" fill="#F8DC94"/>
<path d="M958.354 246.753C956.272 247.148 955.155 248.188 954.748 250.666V246.753H958.354Z" fill="#F8DC94"/>
<path d="M951.142 246.754C953.224 246.359 954.342 245.319 954.748 242.842V246.754H951.142Z" fill="#F8DC94"/>
<path d="M951.142 246.753C953.224 247.148 954.342 248.188 954.748 250.666V246.753H951.142Z" fill="#F8DC94"/>
</g>
<g opacity="0.6">
<path d="M868.024 222.042C863.99 221.278 861.825 219.262 861.037 214.463V222.042H868.024Z" fill="#F8DC94"/>
<path d="M868.024 222.042C863.99 222.806 861.825 224.822 861.037 229.621V222.042H868.024Z" fill="#F8DC94"/>
<path d="M854.05 222.042C858.084 221.278 860.25 219.262 861.037 214.463V222.042H854.05Z" fill="#F8DC94"/>
<path d="M854.05 222.042C858.084 222.806 860.25 224.822 861.037 229.621V222.042H854.05Z" fill="#F8DC94"/>
</g>
<rect x="664.471" y="300.696" width="15.7727" height="73.5865" fill="#A3B5D4"/>
<rect x="676.356" y="300.696" width="3.88763" height="73.5865" fill="#8B9DBD"/>
<path d="M624.114 292.266C624.114 296.922 627.888 300.696 632.543 300.696H680.244V283.837H632.543C627.888 283.837 624.114 287.611 624.114 292.266Z" fill="#8B9DBD"/>
<path d="M974.506 292.266C974.506 296.922 970.732 300.696 966.076 300.696H846.164V283.837H966.076C970.732 283.837 974.506 287.611 974.506 292.266Z" fill="#8B9DBD"/>
<path d="M839.898 300.696H783.967V143.18H834.898C837.66 143.18 839.898 145.419 839.898 148.18V300.696Z" fill="#738AB3"/>
<path d="M829.533 300.696H794.333V166.231C794.333 164.574 795.677 163.231 797.333 163.231H826.533C828.189 163.231 829.533 164.574 829.533 166.231V300.696Z" fill="#434E5E"/>
<mask id="mask8" mask-type="alpha" maskUnits="userSpaceOnUse" x="794" y="163" width="36" height="109">
<path d="M826.533 163.231H797.333C795.677 163.231 794.333 164.574 794.333 166.231V267.933C799.405 266.991 800.848 271.189 804.608 271.189C808.368 271.189 810.154 266.991 814.195 266.991C819.459 266.991 823.501 274.948 829.533 268.66V166.231C829.533 164.574 828.19 163.231 826.533 163.231Z" fill="#797979"/>
</mask>
<g mask="url(#mask8)">
<path d="M826.533 163.231H797.333C795.677 163.231 794.333 164.574 794.333 166.231V267.933C799.405 266.991 800.848 271.189 804.608 271.189C808.368 271.189 810.154 266.991 814.195 266.991C819.459 266.991 823.501 274.948 829.533 268.66V166.231C829.533 164.574 828.19 163.231 826.533 163.231Z" fill="#DEE4F3"/>
<path d="M812.326 267.995V223.093" stroke="#BBB7E7" stroke-width="1.5" stroke-linecap="round"/>
<path d="M812.326 203.075V155.347" stroke="#BBB7E7" stroke-width="1.5" stroke-linecap="round"/>
</g>
<path d="M912.31 292.266C912.31 296.922 908.536 300.696 903.88 300.696H783.968V283.837H903.88C908.536 283.837 912.31 287.611 912.31 292.266Z" fill="#A3B5D4"/>
<path d="M626.941 292.266C626.941 295.361 629.45 297.869 632.544 297.869H680.244V286.663H632.544C629.45 286.663 626.941 289.172 626.941 292.266Z" fill="#617CAB"/>
<path d="M909.483 292.266C909.483 295.361 906.974 297.869 903.88 297.869H783.967V286.663H903.88C906.974 286.663 909.483 289.172 909.483 292.266Z" fill="#617CAB"/>
<rect x="744.433" y="300.696" width="15.7728" height="73.5865" fill="#8B9DBD"/>
<rect x="756.378" y="300.696" width="3.82855" height="73.5865" fill="#738AB2"/>
<rect x="870.302" y="300.696" width="15.7728" height="73.5865" fill="#8B9DBD"/>
<rect x="882.208" y="300.696" width="3.86603" height="73.5865" fill="#738AB2"/>
<rect x="934.93" y="300.696" width="15.7728" height="73.5865" fill="#738AB2"/>
<rect x="946.923" y="300.696" width="3.77966" height="73.5865" fill="#5F769E"/>
<path d="M680.105 300.696H783.967V143.18H685.105C682.344 143.18 680.105 145.419 680.105 148.18V300.696Z" fill="#8B9DBD"/>
<ellipse cx="711.254" cy="263.923" rx="17.3768" ry="17.3724" fill="white"/>
<ellipse cx="710.9" cy="263.86" rx="12.3392" ry="12.336" fill="#E2E9F1"/>
<path d="M706.099 264.823L709.514 268.237L715.865 261.887" stroke="#72BD60" stroke-width="3" stroke-linecap="round" stroke-linejoin="round"/>
<ellipse cx="752.819" cy="263.923" rx="17.3768" ry="17.3724" fill="white"/>
<ellipse cx="752.819" cy="263.923" rx="12.3392" ry="12.336" fill="#4C617F"/>
<path d="M747.927 265.474L750.321 257.135H755.573L753.284 262.463H758.354L750.321 271.497L752.175 265.474H747.927Z" fill="white"/>
<path d="M693.877 229.245C693.877 232.559 696.563 235.245 699.877 235.245H764.196C767.509 235.245 770.196 232.559 770.196 229.245V169.231C770.196 165.917 767.509 163.231 764.196 163.231H699.877C696.563 163.231 693.877 165.917 693.877 169.231V229.245Z" fill="#A3B5D4"/>
<ellipse cx="689.529" cy="152.601" rx="2.82706" ry="2.82639" fill="#617CAB"/>
<ellipse cx="689.529" cy="291.275" rx="2.82706" ry="2.82639" fill="#617CAB"/>
<ellipse cx="774.544" cy="152.601" rx="2.82706" ry="2.82639" fill="#617CAB"/>
<ellipse cx="774.544" cy="291.275" rx="2.82706" ry="2.82639" fill="#617CAB"/>
<ellipse cx="665.136" cy="292.266" rx="3.76944" ry="3.76849" fill="#4C617F"/>
<ellipse cx="820.58" cy="292.266" rx="3.76947" ry="3.76849" fill="#4C617F"/>
<ellipse cx="843.668" cy="292.266" rx="3.76947" ry="3.76849" fill="#4C617F"/>
<ellipse cx="866.756" cy="292.266" rx="3.76944" ry="3.76849" fill="#4C617F"/>
<ellipse cx="889.844" cy="292.266" rx="3.76947" ry="3.76849" fill="#4C617F"/>
<ellipse cx="642.049" cy="292.266" rx="3.76944" ry="3.76849" fill="#4C617F"/>
<ellipse cx="797.492" cy="292.266" rx="3.76944" ry="3.76849" fill="#4C617F"/>
<path fill-rule="evenodd" clip-rule="evenodd" d="M706.411 202.133C706.411 187.984 717.884 176.515 732.036 176.515C746.189 176.515 757.661 187.984 757.661 202.133H742.324C742.324 196.453 737.718 191.848 732.036 191.848C726.355 191.848 721.749 196.453 721.749 202.133H706.411Z" fill="white"/>
<path d="M730.117 206.524L748.117 189.176L738.516 211.197L730.117 206.524Z" fill="#FD686B"/>
<ellipse cx="732.036" cy="216.4" rx="7.4238" ry="7.42188" fill="#8B9DBD"/>
<ellipse cx="732.036" cy="212.632" rx="7.4238" ry="7.42191" fill="#4C617F"/>
<path d="M390.452 120.837C430.123 82.1939 495.931 52.4187 567.378 75.4829C598.466 85.5188 587.939 119.394 569.775 117.701C550.352 115.889 545.061 88.8491 573.615 70.7412C604.592 51.0967 665.957 47.1585 703.676 101.035" stroke="#B3B1FF" stroke-width="3" stroke-linecap="round"/>
<path d="M696.738 105.706L707.379 108.929L711.219 98.2236" stroke="#B3B1FF" stroke-width="3" stroke-linecap="round" stroke-linejoin="round"/>
<g opacity="0.5">
<path d="M596.341 41.5342C591.292 41.128 588.369 38.9409 586.77 33.1568L587.77 42.4553L596.341 41.5342Z" fill="#F8DC94"/>
<path d="M596.341 41.5338C591.493 43.0036 589.103 45.7616 588.77 51.7533L587.77 42.4548L596.341 41.5338Z" fill="#F8DC94"/>
<path d="M579.199 43.3765C584.046 41.9067 586.437 39.1487 586.77 33.1569L587.77 42.4555L579.199 43.3765Z" fill="#F8DC94"/>
<path d="M579.198 43.3761C584.248 43.7823 587.17 45.9694 588.77 51.7535L587.77 42.455L579.198 43.3761Z" fill="#F8DC94"/>
</g>
<g opacity="0.5">
<path d="M485.506 49.9047C482.358 49.6514 480.536 48.288 479.539 44.6823L480.163 50.4789L485.506 49.9047Z" fill="#F8DC94"/>
<path d="M485.506 49.9044C482.483 50.8206 480.993 52.5399 480.786 56.2751L480.162 50.4785L485.506 49.9044Z" fill="#F8DC94"/>
<path d="M474.819 51.0532C477.841 50.137 479.331 48.4177 479.539 44.6825L480.162 50.479L474.819 51.0532Z" fill="#F8DC94"/>
<path d="M474.819 51.0529C477.967 51.3061 479.789 52.6696 480.786 56.2753L480.162 50.4787L474.819 51.0529Z" fill="#F8DC94"/>
</g>
<g opacity="0.8">
<path d="M463.479 45.6056C461.367 45.4357 460.144 44.5208 459.475 42.1011L459.894 45.9909L463.479 45.6056Z" fill="#F8DC94"/>
<path d="M463.479 45.6052C461.451 46.2201 460.451 47.3738 460.312 49.8803L459.894 45.9905L463.479 45.6052Z" fill="#F8DC94"/>
<path d="M456.308 46.3762C458.336 45.7614 459.336 44.6077 459.475 42.1013L459.894 45.9909L456.308 46.3762Z" fill="#F8DC94"/>
<path d="M456.308 46.3758C458.42 46.5458 459.643 47.4607 460.312 49.8804L459.894 45.9905L456.308 46.3758Z" fill="#F8DC94"/>
</g>
<g opacity="0.8">
<path d="M534.055 83.4008C529.962 83.0716 527.594 81.299 526.298 76.6111L527.108 84.1473L534.055 83.4008Z" fill="#F8DC94"/>
<path d="M534.055 83.4002C530.126 84.5915 528.188 86.8268 527.919 91.683L527.108 84.1467L534.055 83.4002Z" fill="#F8DC94"/>
<path d="M520.161 84.894C524.09 83.7028 526.028 81.4674 526.297 76.6112L527.108 84.1475L520.161 84.894Z" fill="#F8DC94"/>
<path d="M520.161 84.8934C524.254 85.2226 526.622 86.9953 527.918 91.6832L527.108 84.1469L520.161 84.8934Z" fill="#F8DC94"/>
</g>
</g>
<path opacity="0.5" d="M378.188 163.545C377.786 165.382 376.16 166.69 374.28 166.69H322.855C320.302 166.69 318.402 164.33 318.948 161.836L323.486 141.091C323.888 139.254 325.514 137.945 327.393 137.945H378.818C381.372 137.945 383.272 140.306 382.726 142.8L378.188 163.545Z" fill="#759CE1" fill-opacity="0.4"/>
<path d="M370.302 159.6C369.901 161.436 368.274 162.745 366.395 162.745H314.97C312.416 162.745 310.516 160.385 311.062 157.89L315.6 137.145C316.002 135.309 317.628 134 319.508 134H370.933C373.486 134 375.386 136.36 374.84 138.855L370.302 159.6Z" fill="white"/>
<path d="M332.588 153.987C336.4 150.49 337.25 145.145 334.485 142.049C331.721 138.952 326.39 139.277 322.577 142.774C318.765 146.27 317.916 151.615 320.68 154.712C323.444 157.808 328.776 157.484 332.588 153.987Z" fill="#DCDBFF"/>
<path d="M364.682 143.498H344.03C343.537 143.498 343.167 143.061 343.29 142.561C343.414 142.061 343.907 141.624 344.4 141.624H365.052C365.545 141.624 365.915 142.061 365.792 142.561C365.73 143.061 365.237 143.498 364.682 143.498Z" fill="#A8A6FB"/>
<path d="M364.682 143.498H344.03C343.537 143.498 343.167 143.061 343.29 142.561C343.414 142.061 343.907 141.624 344.4 141.624H365.052C365.545 141.624 365.915 142.061 365.792 142.561C365.73 143.061 365.237 143.498 364.682 143.498Z" fill="#A8A6FB"/>
<path d="M363.449 149.31H342.735C342.242 149.31 341.872 148.872 341.996 148.373C342.119 147.873 342.612 147.435 343.105 147.435H363.758C364.251 147.435 364.621 147.873 364.497 148.373C364.374 148.872 363.942 149.31 363.449 149.31Z" fill="#A8A6FB"/>
<path d="M353.524 155.121H341.502C341.009 155.121 340.639 154.684 340.763 154.184C340.886 153.684 341.379 153.247 341.872 153.247H353.894C354.387 153.247 354.757 153.684 354.634 154.184C354.572 154.684 354.017 155.121 353.524 155.121Z" fill="#A8A6FB"/>
<path d="M372.133 165.577L363.515 158L360.313 169.396L364.192 168.164L365.423 172.353L369.424 171.059L368.255 166.809L372.133 165.577Z" fill="#474E67"/>
</g>
<path d="M0 201.633H34.5713V237.278H0V201.633Z" fill="#DDE6EE"/>
<rect x="3" y="201.633" width="30.5713" height="32.5887" fill="#BECADC"/>
<rect x="3" y="201.633" width="30.5713" height="8.06445" fill="#2D698B"/>
<rect x="7" y="201.633" width="30.5713" height="32.5887" fill="white"/>
<rect x="7" y="201.633" width="30.5713" height="8.06445" fill="#3B87B2"/>
<path d="M14.4891 215.87V213.326H18.9211V225.006H16.0731V215.87H14.4891ZM20.7928 219.006C20.7928 217.171 21.1448 215.726 21.8488 214.67C22.5634 213.614 23.7101 213.086 25.2888 213.086C26.8674 213.086 28.0088 213.614 28.7128 214.67C29.4274 215.726 29.7848 217.171 29.7848 219.006C29.7848 220.862 29.4274 222.318 28.7128 223.374C28.0088 224.43 26.8674 224.958 25.2888 224.958C23.7101 224.958 22.5634 224.43 21.8488 223.374C21.1448 222.318 20.7928 220.862 20.7928 219.006ZM27.0968 219.006C27.0968 217.929 26.9794 217.102 26.7448 216.526C26.5101 215.939 26.0248 215.646 25.2888 215.646C24.5528 215.646 24.0674 215.939 23.8328 216.526C23.5981 217.102 23.4808 217.929 23.4808 219.006C23.4808 219.731 23.5234 220.334 23.6088 220.814C23.6941 221.283 23.8648 221.667 24.1208 221.966C24.3874 222.254 24.7768 222.398 25.2888 222.398C25.8008 222.398 26.1848 222.254 26.4408 221.966C26.7074 221.667 26.8834 221.283 26.9688 220.814C27.0541 220.334 27.0968 219.731 27.0968 219.006Z" fill="#A6B5CC"/>
<path d="M15.2856 229.738H29.2856" stroke="#BECADC" stroke-width="1.5" stroke-linecap="round"/>
<path d="M29.0571 205.168C28.6429 205.168 28.3071 205.504 28.3071 205.918C28.3071 206.332 28.6429 206.668 29.0571 206.668V205.168ZM32.5131 201.633C32.5131 203.599 30.9526 205.168 29.0571 205.168V206.668C31.8074 206.668 34.0131 204.4 34.0131 201.633H32.5131ZM25.6011 201.633C25.6011 199.667 27.1616 198.097 29.0571 198.097V196.597C26.3068 196.597 24.1011 198.865 24.1011 201.633H25.6011ZM29.0571 198.097C30.9526 198.097 32.5131 199.667 32.5131 201.633H34.0131C34.0131 198.865 31.8074 196.597 29.0571 196.597V198.097Z" fill="#2D698B"/>
<path d="M14.0571 205.168C13.6429 205.168 13.3071 205.504 13.3071 205.918C13.3071 206.332 13.6429 206.668 14.0571 206.668V205.168ZM17.5131 201.633C17.5131 203.599 15.9526 205.168 14.0571 205.168V206.668C16.8074 206.668 19.0131 204.4 19.0131 201.633H17.5131ZM10.6011 201.633C10.6011 199.667 12.1616 198.097 14.0571 198.097V196.597C11.3068 196.597 9.10107 198.865 9.10107 201.633H10.6011ZM14.0571 198.097C15.9526 198.097 17.5131 199.667 17.5131 201.633H19.0131C19.0131 198.865 16.8074 196.597 14.0571 196.597V198.097Z" fill="#2D698B"/>
<path d="M1042 200.614H1076.57V236.259H1042V200.614Z" fill="#DDE6EE"/>
<rect x="1045" y="200.614" width="30.5713" height="32.5885" fill="#BECADC"/>
<rect x="1045" y="200.614" width="30.5713" height="8.06433" fill="#2D698B"/>
<rect x="1049" y="200.614" width="30.5713" height="32.5885" fill="white"/>
<rect x="1049" y="200.614" width="30.5713" height="8.06433" fill="#3B87B2"/>
<path d="M1058.7 214.851V212.307H1063.13V223.987H1060.28V214.851H1058.7ZM1064.72 214.851V212.307H1069.15V223.987H1066.3V214.851H1064.72Z" fill="#A6B5CC"/>
<path d="M1057.29 228.719H1071.29" stroke="#BECADC" stroke-width="1.5" stroke-linecap="round"/>
<path d="M1071.06 204.149C1070.64 204.149 1070.31 204.485 1070.31 204.899C1070.31 205.314 1070.64 205.649 1071.06 205.649V204.149ZM1074.51 200.614C1074.51 202.58 1072.95 204.149 1071.06 204.149V205.649C1073.81 205.649 1076.01 203.382 1076.01 200.614H1074.51ZM1067.6 200.614C1067.6 198.648 1069.16 197.078 1071.06 197.078V195.578C1068.31 195.578 1066.1 197.846 1066.1 200.614H1067.6ZM1071.06 197.078C1072.95 197.078 1074.51 198.648 1074.51 200.614H1076.01C1076.01 197.846 1073.81 195.578 1071.06 195.578V197.078Z" fill="#2D698B"/>
<path d="M1056.06 204.149C1055.64 204.149 1055.31 204.485 1055.31 204.899C1055.31 205.314 1055.64 205.649 1056.06 205.649V204.149ZM1059.51 200.614C1059.51 202.58 1057.95 204.149 1056.06 204.149V205.649C1058.81 205.649 1061.01 203.382 1061.01 200.614H1059.51ZM1052.6 200.614C1052.6 198.648 1054.16 197.078 1056.06 197.078V195.578C1053.31 195.578 1051.1 197.846 1051.1 200.614H1052.6ZM1056.06 197.078C1057.95 197.078 1059.51 198.648 1059.51 200.614H1061.01C1061.01 197.846 1058.81 195.578 1056.06 195.578V197.078Z" fill="#2D698B"/>
<defs>
<clipPath id="clip0">
<rect width="960" height="374" fill="white" transform="translate(114)"/>
</clipPath>
<clipPath id="clip1">
<rect width="1357" height="879" fill="white" transform="translate(-28 -505)"/>
</clipPath>
</defs>
</svg>